<?xml version="1.0" encoding="UTF-8"?>
<svg id="Layer_1" data-name="Layer 1" xmlns="http://www.w3.org/2000/svg" viewBox="0 0 42 39">
  <defs>
    <style>
      .cls-1 {
        fill: #d16761;
      }

      .cls-2 {
        fill: #f5b060;
      }

      .cls-3 {
        fill: #fe9b59;
      }

      .cls-4 {
        fill: #983349;
      }

      .cls-5 {
        fill: #3a0262;
      }

      .cls-6 {
        fill: #febe56;
      }

      .cls-7 {
        fill: #9a5347;
      }

      .cls-8 {
        fill: #e38c48;
      }

      .cls-9 {
        fill: #9d524d;
      }

      .cls-10 {
        fill: #a76953;
      }

      .cls-11 {
        fill: #3a0c52;
      }

      .cls-12 {
        fill: #bf645c;
      }

      .cls-13 {
        fill: #d6635a;
      }

      .cls-14 {
        fill: #7f331a;
      }

      .cls-15 {
        fill: #733b43;
      }

      .cls-16 {
        fill: #a35f4e;
      }

      .cls-17 {
        fill: #360453;
      }

      .cls-18 {
        fill: #fe9662;
      }

      .cls-19 {
        fill: #710d56;
      }

      .cls-20 {
        fill: #eb826d;
      }

      .cls-21 {
        fill: #d75c65;
      }

      .cls-22 {
        fill: #b06d56;
      }

      .cls-23 {
        fill: #893e61;
      }

      .cls-24 {
        fill: #feee71;
      }

      .cls-25 {
        fill: #6b3235;
      }

      .cls-26 {
        fill: #fec566;
      }

      .cls-27 {
        fill: #fba659;
      }

      .cls-28 {
        fill: #b56b65;
      }

      .cls-29 {
        fill: #fc9d4e;
      }

      .cls-30 {
        fill: #a01e6a;
      }

      .cls-31 {
        fill: #fe7877;
      }

      .cls-32 {
        fill: #5b2255;
      }

      .cls-33 {
        fill: #c1784b;
      }

      .cls-34 {
        fill: #681d44;
      }

      .cls-35 {
        fill: #3d0041;
      }

      .cls-36 {
        fill: #6a3453;
      }

      .cls-37 {
        fill: #9c5250;
      }

      .cls-38 {
        fill: #a16357;
      }

      .cls-39 {
        fill: #4f2853;
      }

      .cls-40 {
        fill: #4f1b51;
      }

      .cls-41 {
        fill: #5b2552;
      }

      .cls-42 {
        fill: #380453;
      }

      .cls-43 {
        fill: #fef16c;
      }

      .cls-44 {
        fill: #703420;
      }

      .cls-45 {
        fill: #b1be75;
      }

      .cls-46 {
        fill: #ee9e4e;
      }

      .cls-47 {
        fill: #70374a;
      }

      .cls-48 {
        fill: #7d3f62;
      }

      .cls-49 {
        fill: #c57942;
      }

      .cls-50 {
        fill: #6c3c4d;
      }

      .cls-51 {
        fill: #fe7587;
      }

      .cls-52 {
        fill: #fd7780;
      }

      .cls-53 {
        fill: #f5784c;
      }

      .cls-54 {
        fill: #febc56;
      }

      .cls-55 {
        fill: #d2c27b;
      }

      .cls-56 {
        fill: #893f5d;
      }

      .cls-57 {
        fill: #f69b51;
      }

      .cls-58 {
        fill: #fea966;
      }

      .cls-59 {
        fill: #f4a968;
      }

      .cls-60 {
        fill: #a36549;
      }

      .cls-61 {
        fill: #30094d;
      }

      .cls-62 {
        fill: #feb165;
      }

      .cls-63 {
        fill: #a7684f;
      }

      .cls-64 {
        fill: #5c274c;
      }

      .cls-65 {
        fill: #f08863;
      }

      .cls-66 {
        fill: #ee6077;
      }

      .cls-67 {
        fill: #864261;
      }

      .cls-68 {
        fill: #d66151;
      }

      .cls-69 {
        fill: #4f1d49;
      }

      .cls-70 {
        fill: #ce7766;
      }

      .cls-71 {
        fill: #702022;
      }

      .cls-72 {
        fill: #a38052;
      }

      .cls-73 {
        fill: #f69d5e;
      }

      .cls-74 {
        fill: #a15c46;
      }

      .cls-75 {
        fill: #a0634c;
      }

      .cls-76 {
        fill: #fe2774;
      }

      .cls-77 {
        fill: #b4a366;
      }

      .cls-78 {
        fill: #fef774;
      }

      .cls-79 {
        fill: #66304e;
      }

      .cls-80 {
        fill: #fe8876;
      }

      .cls-81 {
        fill: #7e3626;
      }

      .cls-82 {
        fill: #6a4f54;
      }

      .cls-83 {
        fill: #bebc67;
      }

      .cls-84 {
        fill: #80442b;
      }

      .cls-85 {
        fill: #d58c52;
      }

      .cls-86 {
        fill: #836169;
      }

      .cls-87 {
        fill: #98875c;
      }

      .cls-88 {
        fill: #82465f;
      }

      .cls-89 {
        fill: #fee566;
      }

      .cls-90 {
        fill: #fee96d;
      }

      .cls-91 {
        fill: #fe539f;
      }

      .cls-92 {
        fill: #fe8462;
      }

      .cls-93 {
        fill: #985954;
      }

      .cls-94 {
        fill: #805750;
      }

      .cls-95 {
        fill: #ba4f42;
      }

      .cls-96 {
        fill: #fe468d;
      }

      .cls-97 {
        fill: #944c38;
      }

      .cls-98 {
        fill: #b27755;
      }

      .cls-99 {
        fill: #5c2b49;
      }

      .cls-100 {
        fill: #574454;
      }

      .cls-101 {
        fill: #fe8c69;
      }

      .cls-102 {
        fill: #784953;
      }

      .cls-103 {
        fill: #793f5a;
      }

      .cls-104 {
        fill: #814c4a;
      }

      .cls-105 {
        fill: #441253;
      }

      .cls-106 {
        fill: #611e5a;
      }

      .cls-107 {
        fill: #fe698f;
      }

      .cls-108 {
        fill: #7a3f44;
      }

      .cls-109 {
        fill: #8a4753;
      }

      .cls-110 {
        fill: #2f135b;
      }

      .cls-111 {
        fill: #893f52;
      }

      .cls-112 {
        fill: #fc9e4b;
      }

      .cls-113 {
        fill: #fefe7e;
      }

      .cls-114 {
        fill: #884336;
      }

      .cls-115 {
        fill: #431750;
      }

      .cls-116 {
        fill: #824458;
      }

      .cls-117 {
        fill: #e97042;
      }

      .cls-118 {
        fill: #f77c39;
      }

      .cls-119 {
        fill: #3c1649;
      }

      .cls-120 {
        fill: #74284f;
      }

      .cls-121 {
        fill: #d5625b;
      }

      .cls-122 {
        fill: #f5a26f;
      }

      .cls-123 {
        fill: #8e402c;
      }

      .cls-124 {
        fill: #f07261;
      }

      .cls-125 {
        fill: #d29855;
      }

      .cls-126 {
        fill: #913c58;
      }

      .cls-127 {
        fill: #fec358;
      }

      .cls-128 {
        fill: #52194b;
      }

      .cls-129 {
        fill: #7a1463;
      }

      .cls-130 {
        fill: #ad6b51;
      }

      .cls-131 {
        fill: #9d655d;
      }

      .cls-132 {
        fill: #582952;
      }

      .cls-133 {
        fill: #a07e57;
      }

      .cls-134 {
        fill: #ad6f5d;
      }

      .cls-135 {
        fill: #73485a;
      }

      .cls-136 {
        fill: #fe9f63;
      }

      .cls-137 {
        fill: #ce5e68;
      }

      .cls-138 {
        fill: #bd6767;
      }

      .cls-139 {
        fill: #f39360;
      }

      .cls-140 {
        fill: #7d4e4b;
      }

      .cls-141 {
        fill: #32064d;
      }

      .cls-142 {
        fill: #aa6045;
      }

      .cls-143 {
        fill: #65535b;
      }

      .cls-144 {
        fill: #532653;
      }

      .cls-145 {
        fill: #563c45;
      }

      .cls-146 {
        fill: #8b4f5e;
      }

      .cls-147 {
        fill: #863b42;
      }

      .cls-148 {
        fill: #a9684e;
      }

      .cls-149 {
        fill: #f46b5d;
      }

      .cls-150 {
        fill: #872b61;
      }

      .cls-151 {
        fill: #e67956;
      }

      .cls-152 {
        fill: #84574d;
      }

      .cls-153 {
        fill: #87524f;
      }

      .cls-154 {
        fill: #fece5b;
      }

      .cls-155 {
        fill: #9b604a;
      }

      .cls-156 {
        fill: #a46d54;
      }

      .cls-157 {
        fill: #e47b54;
      }

      .cls-158 {
        fill: #5c2648;
      }

      .cls-159 {
        fill: #f1ac58;
      }

      .cls-160 {
        fill: #fed158;
      }

      .cls-161 {
        fill: #f08056;
      }

      .cls-162 {
        fill: #2d084a;
      }

      .cls-163 {
        fill: #8b4d5c;
      }

      .cls-164 {
        fill: #875a70;
      }

      .cls-165 {
        fill: #e6a857;
      }

      .cls-166 {
        fill: #6c3747;
      }

      .cls-167 {
        fill: #7a3334;
      }

      .cls-168 {
        fill: #fe7c82;
      }

      .cls-169 {
        fill: #b48761;
      }

      .cls-170 {
        fill: #814e49;
      }

      .cls-171 {
        fill: #8f4e38;
      }

      .cls-172 {
        fill: #7e3956;
      }

      .cls-173 {
        fill: #873744;
      }

      .cls-174 {
        fill: #a82867;
      }

      .cls-175 {
        fill: #c88250;
      }

      .cls-176 {
        fill: #feed6a;
      }

      .cls-177 {
        fill: #f17d6b;
      }

      .cls-178 {
        fill: #baab78;
      }

      .cls-179 {
        fill: #85485f;
      }

      .cls-180 {
        fill: #fe9b69;
      }

      .cls-181 {
        fill: #935051;
      }

      .cls-182 {
        fill: #b6605f;
      }

      .cls-183 {
        fill: #faad5e;
      }

      .cls-184 {
        fill: #af7048;
      }

      .cls-185 {
        fill: #86463d;
      }

      .cls-186 {
        fill: #6d274e;
      }

      .cls-187 {
        fill: #854429;
      }

      .cls-188 {
        fill: #d0656a;
      }

      .cls-189 {
        fill: #6b2e61;
      }

      .cls-190 {
        fill: #974e4d;
      }

      .cls-191 {
        fill: #fceb8e;
      }

      .cls-192 {
        fill: #4a1a4e;
      }

      .cls-193 {
        fill: #763d5c;
      }

      .cls-194 {
        fill: #d1a159;
      }

      .cls-195 {
        fill: #feaa5e;
      }

      .cls-196 {
        fill: #785846;
      }

      .cls-197 {
        fill: #6a3747;
      }

      .cls-198 {
        fill: #f0886a;
      }

      .cls-199 {
        fill: #885365;
      }

      .cls-200 {
        fill: #cfac6e;
      }

      .cls-201 {
        fill: #f8a055;
      }

      .cls-202 {
        fill: #62294e;
      }

      .cls-203 {
        fill: #fb8a4a;
      }

      .cls-204 {
        fill: #8f4a3c;
      }

      .cls-205 {
        fill: #460442;
      }

      .cls-206 {
        fill: #bf7642;
      }

      .cls-207 {
        fill: #fecb70;
      }

      .cls-208 {
        fill: #814157;
      }

      .cls-209 {
        fill: #f38766;
      }

      .cls-210 {
        fill: #fe8e6a;
      }

      .cls-211 {
        fill: #985c4c;
      }

      .cls-212 {
        fill: #f39a4f;
      }

      .cls-213 {
        fill: #802451;
      }

      .cls-214 {
        fill: #672d51;
      }

      .cls-215 {
        fill: #edda6f;
      }

      .cls-216 {
        fill: #733432;
      }

      .cls-217 {
        fill: #faea8f;
      }

      .cls-218 {
        fill: #c47a40;
      }

      .cls-219 {
        fill: #a7685c;
      }

      .cls-220 {
        fill: #7e445b;
      }

      .cls-221 {
        fill: #985361;
      }

      .cls-222 {
        fill: #8b4d57;
      }

      .cls-223 {
        fill: #7d444f;
      }

      .cls-224 {
        fill: #752344;
      }

      .cls-225 {
        fill: #705161;
      }

      .cls-226 {
        fill: #a7785e;
      }

      .cls-227 {
        fill: #94554b;
      }

      .cls-228 {
        fill: #fecc65;
      }

      .cls-229 {
        fill: #d35a67;
      }

      .cls-230 {
        fill: #fae87d;
      }

      .cls-231 {
        fill: #b4704c;
      }

      .cls-232 {
        fill: #b07153;
      }

      .cls-233 {
        fill: #fa9b4b;
      }

      .cls-234 {
        fill: #34054c;
      }

      .cls-235 {
        fill: #2c0051;
      }

      .cls-236 {
        fill: #5d004a;
      }

      .cls-237 {
        fill: #602753;
      }

      .cls-238 {
        fill: #fc9a4a;
      }

      .cls-239 {
        fill: #955a51;
      }

      .cls-240 {
        fill: #c9734a;
      }

      .cls-241 {
        fill: #79576b;
      }

      .cls-242 {
        fill: #eca86d;
      }

      .cls-243 {
        fill: #fea25f;
      }

      .cls-244 {
        fill: #921c62;
      }

      .cls-245 {
        fill: #833d36;
      }

      .cls-246 {
        fill: #f28446;
      }

      .cls-247 {
        fill: #e26938;
      }

      .cls-248 {
        fill: #feb45c;
      }

      .cls-249 {
        fill: #8f594d;
      }

      .cls-250 {
        fill: #753a46;
      }

      .cls-251 {
        fill: #985946;
      }

      .cls-252 {
        fill: #481d4a;
      }

      .cls-253 {
        fill: #803832;
      }

      .cls-254 {
        fill: #9a856f;
      }

      .cls-255 {
        fill: #735261;
      }

      .cls-256 {
        fill: #c88057;
      }

      .cls-257 {
        fill: #31044f;
      }

      .cls-258 {
        fill: #90544a;
      }

      .cls-259 {
        fill: #954f5b;
      }

      .cls-260 {
        fill: #fe8c5f;
      }

      .cls-261 {
        fill: #fef495;
      }

      .cls-262 {
        fill: #93856e;
      }

      .cls-263 {
        fill: #5e3258;
      }

      .cls-264 {
        fill: #ae643b;
      }

      .cls-265 {
        fill: #9d6142;
      }

      .cls-266 {
        fill: #bb8a5f;
      }

      .cls-267 {
        fill: #da6669;
      }

      .cls-268 {
        fill: #783b5c;
      }

      .cls-269 {
        fill: #874745;
      }

      .cls-270 {
        fill: #ee685b;
      }

      .cls-271 {
        fill: #6f394a;
      }

      .cls-272 {
        fill: #fedb69;
      }

      .cls-273 {
        fill: #1f1533;
      }

      .cls-274 {
        fill: #8b4c4d;
      }

      .cls-275 {
        fill: #824a41;
      }

      .cls-276 {
        fill: #5f2351;
      }

      .cls-277 {
        fill: #816d6c;
      }

      .cls-278 {
        fill: #a86568;
      }

      .cls-279 {
        fill: #a05d49;
      }

      .cls-280 {
        fill: #762530;
      }

      .cls-281 {
        fill: #873f50;
      }

      .cls-282 {
        fill: #ab6b55;
      }

      .cls-283 {
        fill: #4b1b2c;
      }

      .cls-284 {
        fill: #a37b5e;
      }

      .cls-285 {
        fill: #fea35d;
      }

      .cls-286 {
        fill: #b26c5d;
      }

      .cls-287 {
        fill: #451350;
      }

      .cls-288 {
        fill: #6e211c;
      }

      .cls-289 {
        fill: #380a4a;
      }

      .cls-290 {
        fill: #c83273;
      }

      .cls-291 {
        fill: #914738;
      }

      .cls-292 {
        fill: #d27860;
      }

      .cls-293 {
        fill: #967b49;
      }

      .cls-294 {
        fill: #8c4a46;
      }

      .cls-295 {
        fill: #491752;
      }

      .cls-296 {
        fill: #8c4e31;
      }

      .cls-297 {
        fill: #40144f;
      }

      .cls-298 {
        fill: #3c1b48;
      }

      .cls-299 {
        fill: #8b606a;
      }

      .cls-300 {
        fill: #b0805e;
      }

      .cls-301 {
        fill: #a40e60;
      }

      .cls-302 {
        fill: #905952;
      }

      .cls-303 {
        fill: #864453;
      }

      .cls-304 {
        fill: #838064;
      }

      .cls-305 {
        fill: #97534f;
      }

      .cls-306 {
        fill: #dde177;
      }

      .cls-307 {
        fill: #431456;
      }

      .cls-308 {
        fill: #672449;
      }

      .cls-309 {
        fill: #a26953;
      }

      .cls-310 {
        fill: #6c1d16;
      }

      .cls-311 {
        fill: #994369;
      }

      .cls-312 {
        fill: #fee962;
      }

      .cls-313 {
        fill: #e0663d;
      }

      .cls-314 {
        fill: #b34f43;
      }

      .cls-315 {
        fill: #834c58;
      }

      .cls-316 {
        fill: #bb4372;
      }

      .cls-317 {
        fill: #a12a48;
      }

      .cls-318 {
        fill: #c2895b;
      }

      .cls-319 {
        fill: #c1af77;
      }

      .cls-320 {
        fill: #ce735f;
      }

      .cls-321 {
        fill: #712e20;
      }

      .cls-322 {
        fill: #c67f50;
      }

      .cls-323 {
        fill: #b86e3d;
      }

      .cls-324 {
        fill: #441351;
      }

      .cls-325 {
        fill: #b7216d;
      }

      .cls-326 {
        fill: #5c234c;
      }

      .cls-327 {
        fill: #fea06a;
      }

      .cls-328 {
        fill: #7e4056;
      }

      .cls-329 {
        fill: #53214c;
      }

      .cls-330 {
        fill: #823f4a;
      }

      .cls-331 {
        fill: #fe7666;
      }

      .cls-332 {
        fill: #431551;
      }

      .cls-333 {
        fill: #fe6b9b;
      }

      .cls-334 {
        fill: #51134f;
      }

      .cls-335 {
        fill: #b96c5a;
      }

      .cls-336 {
        fill: #fec761;
      }

      .cls-337 {
        fill: #d4b05c;
      }

      .cls-338 {
        fill: #eac566;
      }

      .cls-339 {
        fill: #a15c50;
      }

      .cls-340 {
        fill: #8b4f5a;
      }

      .cls-341 {
        fill: #bb854f;
      }

      .cls-342 {
        fill: #633657;
      }

      .cls-343 {
        fill: #aa7145;
      }

      .cls-344 {
        fill: #33083f;
      }

      .cls-345 {
        fill: #c21272;
      }

      .cls-346 {
        fill: #ca8447;
      }

      .cls-347 {
        fill: #9c6457;
      }

      .cls-348 {
        fill: #aca07a;
      }

      .cls-349 {
        fill: #916d62;
      }

      .cls-350 {
        fill: #280051;
      }

      .cls-351 {
        fill: #fedd63;
      }

      .cls-352 {
        fill: #a9704d;
      }

      .cls-353 {
        fill: #f89a54;
      }

      .cls-354 {
        fill: #4c2d5a;
      }

      .cls-355 {
        fill: #81605c;
      }

      .cls-356 {
        fill: #684b50;
      }

      .cls-357 {
        fill: #691f4e;
      }

      .cls-358 {
        fill: #883d32;
      }

      .cls-359 {
        fill: #fea45f;
      }

      .cls-360 {
        fill: #71335b;
      }

      .cls-361 {
        fill: #d85665;
      }

      .cls-362 {
        fill: #955161;
      }

      .cls-363 {
        fill: #ce855a;
      }

      .cls-364 {
        fill: #f28963;
      }

      .cls-365 {
        fill: #865759;
      }

      .cls-366 {
        fill: #fee964;
      }

      .cls-367 {
        fill: #601645;
      }

      .cls-368 {
        fill: #874737;
      }

      .cls-369 {
        fill: #8a3d20;
      }

      .cls-370 {
        fill: #a1592e;
      }

      .cls-371 {
        fill: #b16450;
      }

      .cls-372 {
        fill: #9a484d;
      }

      .cls-373 {
        fill: #73465b;
      }

      .cls-374 {
        fill: #fec255;
      }

      .cls-375 {
        fill: #6d4855;
      }

      .cls-376 {
        fill: #680057;
      }

      .cls-377 {
        fill: #f8675a;
      }

      .cls-378 {
        fill: #feec85;
      }

      .cls-379 {
        fill: #bcc674;
      }

      .cls-380 {
        fill: #956359;
      }

      .cls-381 {
        fill: #bd9760;
      }

      .cls-382 {
        fill: #7e7f6c;
      }

      .cls-383 {
        fill: #a78d76;
      }

      .cls-384 {
        fill: #fec455;
      }

      .cls-385 {
        fill: #ce8440;
      }

      .cls-386 {
        fill: #21004d;
      }

      .cls-387 {
        fill: #ea934f;
      }

      .cls-388 {
        fill: #81475c;
      }

      .cls-389 {
        fill: #b35252;
      }

      .cls-390 {
        fill: #f8d87f;
      }

      .cls-391 {
        fill: #d26d5a;
      }

      .cls-392 {
        fill: #eb7947;
      }

      .cls-393 {
        fill: #e6786c;
      }

      .cls-394 {
        fill: #af4549;
      }

      .cls-395 {
        fill: #fe9859;
      }

      .cls-396 {
        fill: #e46a7a;
      }

      .cls-397 {
        fill: #bf7a58;
      }

      .cls-398 {
        fill: #9b6365;
      }

      .cls-399 {
        fill: #d18a50;
      }

      .cls-400 {
        fill: #960b61;
      }

      .cls-401 {
        fill: #aa6b52;
      }

      .cls-402 {
        fill: #fe755d;
      }

      .cls-403 {
        fill: #5f2b4a;
      }

      .cls-404 {
        fill: #804554;
      }

      .cls-405 {
        fill: #9d4733;
      }

      .cls-406 {
        fill: #dd985e;
      }

      .cls-407 {
        fill: #eb7e46;
      }

      .cls-408 {
        fill: #fe7971;
      }

      .cls-409 {
        fill: #9f6b5b;
      }

      .cls-410 {
        fill: #feb764;
      }

      .cls-411 {
        fill: #572058;
      }

      .cls-412 {
        fill: #9f5252;
      }

      .cls-413 {
        fill: #be8152;
      }

      .cls-414 {
        fill: #8c4c50;
      }

      .cls-415 {
        fill: #a75d52;
      }

      .cls-416 {
        fill: #b06430;
      }

      .cls-417 {
        fill: #773941;
      }

      .cls-418 {
        fill: #a66c4a;
      }

      .cls-419 {
        fill: #8e4a37;
      }

      .cls-420 {
        fill: #c77866;
      }

      .cls-421 {
        fill: #9a6850;
      }

      .cls-422 {
        fill: #d3cd72;
      }

      .cls-423 {
        fill: #f9577c;
      }

      .cls-424 {
        fill: #491d4d;
      }

      .cls-425 {
        fill: #b1765b;
      }

      .cls-426 {
        fill: #b46065;
      }

      .cls-427 {
        fill: #b5723d;
      }

      .cls-428 {
        fill: #833849;
      }

      .cls-429 {
        fill: #c76b47;
      }

      .cls-430 {
        fill: #f5cd7c;
      }

      .cls-431 {
        fill: #d14e79;
      }

      .cls-432 {
        fill: #8f344c;
      }

      .cls-433 {
        fill: #540053;
      }

      .cls-434 {
        fill: #c35a48;
      }

      .cls-435 {
        fill: #4c0138;
      }

      .cls-436 {
        fill: #a2a96e;
      }

      .cls-437 {
        fill: #bb724e;
      }

      .cls-438 {
        fill: #f29e49;
      }

      .cls-439 {
        fill: #802c51;
      }

      .cls-440 {
        fill: #bf7f60;
      }

      .cls-441 {
        fill: #963056;
      }

      .cls-442 {
        fill: #3c0c49;
      }

      .cls-443 {
        fill: #7b596c;
      }

      .cls-444 {
        fill: #9e6340;
      }

      .cls-445 {
        fill: #7e4b47;
      }

      .cls-446 {
        fill: #3a1044;
      }

      .cls-447 {
        fill: #703e49;
      }

      .cls-448 {
        fill: #fd7b48;
      }

      .cls-449 {
        fill: #7a3744;
      }

      .cls-450 {
        fill: #9f6654;
      }

      .cls-451 {
        fill: #613a45;
      }

      .cls-452 {
        fill: #9c5944;
      }

      .cls-453 {
        fill: #944f6e;
      }

      .cls-454 {
        fill: #ce716c;
      }

      .cls-455 {
        fill: #b69258;
      }

      .cls-456 {
        fill: #fea07f;
      }

      .cls-457 {
        fill: #804f44;
      }

      .cls-458 {
        fill: #f4735a;
      }

      .cls-459 {
        fill: #a14546;
      }

      .cls-460 {
        fill: #f79f5b;
      }

      .cls-461 {
        fill: #f29b51;
      }

      .cls-462 {
        fill: #77005b;
      }

      .cls-463 {
        fill: #c55550;
      }

      .cls-464 {
        fill: #552149;
      }

      .cls-465 {
        fill: #63303d;
      }

      .cls-466 {
        fill: #642348;
      }

      .cls-467 {
        fill: #90494b;
      }

      .cls-468 {
        fill: #bb7e57;
      }

      .cls-469 {
        fill: #f67b62;
      }

      .cls-470 {
        fill: #883730;
      }

      .cls-471 {
        fill: #995750;
      }

      .cls-472 {
        fill: #4a1653;
      }

      .cls-473 {
        fill: #733444;
      }

      .cls-474 {
        fill: #d77263;
      }

      .cls-475 {
        fill: #72284d;
      }

      .cls-476 {
        fill: #fe4fab;
      }

      .cls-477 {
        fill: #f59660;
      }

      .cls-478 {
        fill: #e4824a;
      }

      .cls-479 {
        fill: #915342;
      }

      .cls-480 {
        fill: #1e014c;
      }

      .cls-481 {
        fill: #935435;
      }

      .cls-482 {
        fill: #fe7174;
      }

      .cls-483 {
        fill: #ec8b5f;
      }

      .cls-484 {
        fill: #f6dc71;
      }

      .cls-485 {
        fill: #731f48;
      }

      .cls-486 {
        fill: #5b2b53;
      }

      .cls-487 {
        fill: #fe9c5d;
      }

      .cls-488 {
        fill: #6e2157;
      }

      .cls-489 {
        fill: #72301b;
      }

      .cls-490 {
        fill: #d9cb73;
      }

      .cls-491 {
        fill: #32024e;
      }

      .cls-492 {
        fill: #8f2447;
      }

      .cls-493 {
        fill: #a86149;
      }

      .cls-494 {
        fill: #b9613a;
      }

      .cls-495 {
        fill: #871f58;
      }

      .cls-496 {
        fill: #592452;
      }

      .cls-497 {
        fill: #ed736c;
      }

      .cls-498 {
        fill: #904258;
      }

      .cls-499 {
        fill: #b4ac6a;
      }

      .cls-500 {
        fill: #ee3871;
      }

      .cls-501 {
        fill: #622133;
      }

      .cls-502 {
        fill: #fec14a;
      }

      .cls-503 {
        fill: #89452b;
      }

      .cls-504 {
        fill: #dacb6e;
      }

      .cls-505 {
        fill: #934f2b;
      }

      .cls-506 {
        fill: #f49152;
      }

      .cls-507 {
        fill: #fe8770;
      }

      .cls-508 {
        fill: #a87754;
      }

      .cls-509 {
        fill: #592b4e;
      }

      .cls-510 {
        fill: #4f0a1b;
      }

      .cls-511 {
        fill: #dc6460;
      }

      .cls-512 {
        fill: #bc7661;
      }

      .cls-513 {
        fill: #7b4846;
      }

      .cls-514 {
        fill: #7d3513;
      }

      .cls-515 {
        fill: #851c41;
      }

      .cls-516 {
        fill: #e59d58;
      }

      .cls-517 {
        fill: #c98d63;
      }

      .cls-518 {
        fill: #7f5643;
      }

      .cls-519 {
        fill: #f65073;
      }

      .cls-520 {
        fill: #cfbd77;
      }

      .cls-521 {
        fill: #fefe73;
      }

      .cls-522 {
        fill: #682f54;
      }

      .cls-523 {
        fill: #bf6264;
      }

      .cls-524 {
        fill: #fe9357;
      }

      .cls-525 {
        fill: #74383e;
      }

      .cls-526 {
        fill: #fe8a69;
      }

      .cls-527 {
        fill: #90524b;
      }

      .cls-528 {
        fill: #6b1b54;
      }

      .cls-529 {
        fill: #7c434a;
      }

      .cls-530 {
        fill: #885a47;
      }

      .cls-531 {
        fill: #b74557;
      }

      .cls-532 {
        fill: #dd3f6e;
      }

      .cls-533 {
        fill: #7c3160;
      }

      .cls-534 {
        fill: #7e1a55;
      }

      .cls-535 {
        fill: #af6e45;
      }

      .cls-536 {
        fill: #8a314f;
      }

      .cls-537 {
        fill: #9d655c;
      }

      .cls-538 {
        fill: #fe7a69;
      }

      .cls-539 {
        fill: #9f5b49;
      }

      .cls-540 {
        fill: #ab5a59;
      }

      .cls-541 {
        fill: #cfbf75;
      }

      .cls-542 {
        fill: #fefe99;
      }

      .cls-543 {
        fill: #8f3f52;
      }

      .cls-544 {
        fill: #dab35d;
      }

      .cls-545 {
        fill: #a8654d;
      }

      .cls-546 {
        fill: #a2624e;
      }

      .cls-547 {
        fill: #acb574;
      }
    </style>
  </defs>
  <path class="cls-226" d="M18,3c.36-1.6,4.41-1.45,5,0,.29-.66.63-.64,1,0,.3-.63.63-.62,1,0h1l2,1c.69.29.67.63,0,1-.29.66-.63.64-1,0-.29.66-.63.64-1,0-.78.85-2.45.35-2-1-.42.77-1.53.75-2,0-.93.86-3.73.78-5,0,.61,1.17.17,1.61-1,1-.3.56-.63.55-1,0-.38,1.4-1.05,1.73-2,1-.29.66-.63.64-1,0-.66-.29-.64-.63,0-1-.43-1.03.02-1.43,1-1,.54-.29,1.2-.62,2-1h1c.42-.77,1.53-.75,2,0Z"/>
  <path class="cls-452" d="M22,36c1.64.08,1.15,1.01,0,2-1.95.39-3.75-.27-5.89-1.29-1.29.71-2.26.31-2.11-.71l1-1c2.17-.28,4.75-.17,7,1Z"/>
  <path class="cls-414" d="M7,11c.87.28.86.62,0,1l-1,1c.66.29.64.63,0,1l-1,1c.66.29.64.63,0,1,.83.26.72,1.47,0,2-.29.66-.63.64-1,0l-.03-4.77c-1.23-.46-1.15-1.16-.02-1.29.97.21,1.21-.51,1.05-.93l1-1c.3-.63.63-.61,1,0,.87.28.86.62,0,1Z"/>
  <path class="cls-167" d="M23,2c.66.29.64.63,0,1h-5c-.87-.28-.86-.62,0-1-.06-1.44,1.57-1.08,3.01-.9,1.18-.36,2.15-.13,1.99.9Z"/>
  <path class="cls-274" d="M6,23c.29-.66.63-.64,1,0,.87.28.86.62,0,1-.41.67-1.25.86-2,1-.29.66-.63.64-1,0v-1c-.63-.3-.61-.63,0-1,.29-.66.63-.64,1,0,.29-.66.63-.64,1,0Z"/>
  <path class="cls-294" d="M38,14c-.29.66-.63.64-1,0-.29.66-.63.64-1,0-.66-.29-.64-.63,0-1l1-1c1.2-.12,1.15,1.09,1,2Z"/>
  <path class="cls-525" d="M13,3c.87.28.86.62,0,1,.15.66-.34,1.15-1,1l-1-1c-.12-1.21,1.08-1.13,2-1Z"/>
  <path class="cls-358" d="M38,25c-.29.66-.63.64-1,0-.86-.29-.67-1.5,0-2-.87-.28-.86-.62,0-1,.29-.66.63-.64,1,0v3Z"/>
  <path class="cls-166" d="M30,4l-1,1c-.29.66-.63.64-1,0v-1c-.87-.28-.86-.62,0-1,.91-.15,2.12-.2,2,1Z"/>
  <path class="cls-84" d="M38,19c-.28.87-.62.86-1,0-.86-.29-.72-2.3,0-3,.29-.66.63-.64,1,0v3Z"/>
  <path class="cls-503" d="M24,36c.63.3.62.63,0,1l-2,1v-2c.02-1.5,1.62-1.47,2,0Z"/>
  <path class="cls-74" d="M38,21c-.29.66-.63.64-1,0-1.63-.24-1.91-1.86,0-2h1v2Z"/>
  <path class="cls-347" d="M4,20c.66.29.64.63,0,1-.29.66-.63.64-1,0-.15-.91-.2-2.12,1-2,.66.29.64.63,0,1Z"/>
  <path class="cls-123" d="M37,28c.13.47-.12.87-.51,1-.46.12-.93-.05-1.49,0-.66-.29-.64-.63,0-1,.29-.66.63-.64,1,0,.29-.66.63-.64,1,0Z"/>
  <path class="cls-114" d="M5,28c.66.29.64.63,0,1-1.2.12-1.15-1.09-1-2,.29-.66.63-.64,1,0,.66.29.64.63,0,1Z"/>
  <path class="cls-171" d="M38,26c.15.66-.34,1.15-1,1-.29.66-.63.64-1,0-.66-.29-.64-.63,0-1,.29-.66.63-.64,1,0,.29-.66.63-.64,1,0Z"/>
  <path class="cls-245" d="M28,3v1c-.91.15-2.12.2-2-1h2Z"/>
  <path class="cls-253" d="M15,3c.13.48-.14.87-.51,1.01-.48.1-.95-.05-1.49,0v-1h2Z"/>
  <path class="cls-97" d="M29,36c-.66-.29-.64-.63,0-1-.66-.29-.64-.63,0-1,.29-.66.63-.64,1,0-.04.54.1,1.01,0,1.49-.14.38-.52.65-1.01.51Z"/>
  <path class="cls-71" d="M18,2v1h-2c-.13-.47.12-.87.51-1,.46-.12.93.05,1.49,0Z"/>
  <path class="cls-419" d="M24,37v-1c.29-.66.63-.64,1,0,.15.66-.34,1.15-1,1Z"/>
  <path class="cls-470" d="M36,13c-.66-.29-.64-.63,0-1h1c.15.66-.34,1.15-1,1Z"/>
  <path class="cls-296" d="M36,12c-.29.66-.63.64-1,0-.66-.29-.64-.63,0-1,.66-.15,1.15.34,1,1Z"/>
  <path class="cls-216" d="M38,15c-.29.66-.63.64-1,0-.66-.29-.64-.63,0-1h1v1Z"/>
  <path class="cls-321" d="M38,16h-1c-.66-.29-.64-.63,0-1h1v1Z"/>
  <path class="cls-131" d="M35,11c-.29.66-.63.64-1,0-.66-.29-.64-.63,0-1,.3-.63.63-.62,1,0v1Z"/>
  <path class="cls-48" d="M5,19c-.29.66-.63.64-1,0v-1h1c.66.29.64.63,0,1Z"/>
  <path class="cls-187" d="M5,11c-.15-.66.34-1.15,1-1,.15.66-.34,1.15-1,1Z"/>
  <path class="cls-493" d="M35,10h-1c-.66-.29-.64-.63,0-1,.66-.15,1.15.34,1,1Z"/>
  <path class="cls-22" d="M7,10h-1c-.15-.66.34-1.15,1-1,.63.3.62.63,0,1Z"/>
  <path class="cls-535" d="M34,9c-.29.66-.63.64-1,0-.66-.29-.64-.63,0-1,.3-.63.63-.62,1,0v1Z"/>
  <path class="cls-279" d="M4,22c-.29.66-.63.64-1,0v-1h1c.66.29.64.63,0,1Z"/>
  <path class="cls-204" d="M38,22h-1c-.56-.3-.55-.63,0-1h1v1Z"/>
  <path class="cls-368" d="M4,23c-.3.63-.63.62-1,0v-1h1c.66.29.64.63,0,1Z"/>
  <path class="cls-75" d="M8,9c-.3.63-.63.61-1,0v-1c.3-.63.63-.61,1,0,.63.3.62.63,0,1Z"/>
  <path class="cls-510" d="M34,8h-1c-.66-.29-.64-.63,0-1,.66-.15,1.15.34,1,1Z"/>
  <path class="cls-81" d="M4,24c-.66.15-1.15-.34-1-1h1v1Z"/>
  <path class="cls-427" d="M33,8c-.29.66-.63.64-1,0-.66-.29-.64-.63,0-1h1v1Z"/>
  <path class="cls-546" d="M5,26c-.29.66-.63.64-1,0v-1h1c.73.29.72.62,0,1Z"/>
  <path class="cls-7" d="M9,8c-.3.63-.63.61-1,0-.63-.3-.62-.63,0-1h1c.66.29.64.63,0,1Z"/>
  <path class="cls-485" d="M38,26h-1c-.66-.29-.64-.63,0-1h1v1Z"/>
  <path class="cls-291" d="M5,27h-1v-1h1c.87.28.86.62,0,1Z"/>
  <path class="cls-310" d="M8,8h-1c-.15-.66.34-1.15,1-1v1Z"/>
  <path class="cls-437" d="M32,7c-.29.66-.63.64-1,0-.66-.29-.64-.63,0-1,.66-.15,1.15.34,1,1Z"/>
  <path class="cls-199" d="M31,7c-.29.66-.63.64-1,0-.66-.29-.64-.63,0-1h1v1Z"/>
  <path class="cls-501" d="M37,28h-1c-.66-.29-.64-.63,0-1h1v1Z"/>
  <path class="cls-370" d="M6,29h-1v-1c.29-.66.63-.64,1,0,.66.29.64.63,0,1Z"/>
  <path class="cls-184" d="M7,30c-.66.15-1.15-.34-1-1,.29-.66.63-.64,1,0,.66.29.64.63,0,1Z"/>
  <path class="cls-416" d="M34,30c-.66-.29-.64-.63,0-1,.29-.66.63-.64,1,0,.15.66-.34,1.15-1,1Z"/>
  <path class="cls-440" d="M8,31c-.66.15-1.15-.34-1-1,.29-.66.63-.64,1,0,.66.29.64.63,0,1Z"/>
  <path class="cls-286" d="M10,7c-.29.66-.63.64-1,0-.15-.66.34-1.15,1-1,.66.29.64.63,0,1Z"/>
  <path class="cls-371" d="M30,6c-.29.66-.63.64-1,0-.87-.28-.86-.62,0-1,.3-.63.63-.61,1,0v1Z"/>
  <path class="cls-33" d="M33,31c-.66-.29-.64-.63,0-1,.29-.66.63-.64,1,0,.15.66-.34,1.15-1,1Z"/>
  <path class="cls-155" d="M9,32c-.3.63-.63.62-1,0v-1c.29-.66.63-.64,1,0,.66.29.64.63,0,1Z"/>
  <path class="cls-363" d="M32,32c-.66-.29-.64-.63,0-1,.29-.66.63-.64,1,0,.15.66-.34,1.15-1,1Z"/>
  <path class="cls-514" d="M9,33c-.66.15-1.15-.34-1-1h1c.66.29.64.63,0,1Z"/>
  <path class="cls-418" d="M10,33h-1v-1c.29-.66.63-.64,1,0,.66.29.64.63,0,1Z"/>
  <path class="cls-405" d="M11,6c-.29.66-.63.64-1,0v-1c.3-.63.63-.61,1,0,.66.29.64.63,0,1Z"/>
  <path class="cls-218" d="M31,33c-.66-.29-.64-.63,0-1,.29-.66.63-.64,1,0,.15.66-.34,1.15-1,1Z"/>
  <path class="cls-175" d="M11,34c-.66.15-1.15-.34-1-1,.29-.66.63-.64,1,0,.66.29.64.63,0,1Z"/>
  <path class="cls-93" d="M12,34h-1v-1c.29-.66.63-.64,1,0,.66.29.64.63,0,1Z"/>
  <path class="cls-489" d="M30,5h-1c-.15-.66.34-1.15,1-1v1Z"/>
  <path class="cls-264" d="M30,34c-.66-.29-.64-.63,0-1,.29-.66.63-.64,1,0,.15.66-.34,1.15-1,1Z"/>
  <path class="cls-479" d="M13,35c-.3.63-.63.62-1,0v-1c.29-.66.63-.64,1,0,.66.29.64.63,0,1Z"/>
  <path class="cls-283" d="M11,5h-1c-.15-.66.34-1.15,1-1,.63.3.61.63,0,1Z"/>
  <path class="cls-288" d="M25,3h-1c-.66-.29-.64-.63,0-1,.66-.15,1.15.34,1,1Z"/>
  <path class="cls-44" d="M13,36c-.66.15-1.15-.34-1-1h1c.66.29.64.63,0,1Z"/>
  <path class="cls-505" d="M14,36h-1v-1c.29-.66.63-.64,1,0,.63.3.62.63,0,1Z"/>
  <rect class="cls-280" x="23" y="2" width="1" height="1"/>
  <path class="cls-450" d="M26,36h-1c-.66-.29-.64-.63,0-1,.29-.66.63-.64,1,0,.66.29.64.63,0,1Z"/>
  <path class="cls-481" d="M27,36h-1v-1c.29-.66.63-.64,1,0,.66.29.64.63,0,1Z"/>
  <path class="cls-369" d="M28,36h-1v-1c.29-.66.63-.64,1,0,.66.29.64.63,0,1Z"/>
  <path class="cls-25" d="M29,36h-1v-1c.29-.66.63-.64,1,0v1Z"/>
  <path class="cls-390" d="M22,5l1,1c.66.29.64.63,0,1-.28.87-.62.86-1,0l-1,2c.71.29.7.63,0,1-.3.63-.63.62-1,0-.73-.71-1.29-.68-2,0-.28.87-.62.86-1,0-.87-.28-.86-.62,0-1-.62-.97-.95-.97-1,0-.29.66-.63.64-1,0-1.19-.14-1.8-.83-2-2-.66-.29-.64-.63,0-1-.12-1.21,1.08-1.13,2-1,.39.56.61.56,1,0-.15-.66.34-1.15,1-1,1.65.45,3.31.78,5,1Z"/>
  <path class="cls-248" d="M26,5c.66.29.64.63,0,1-.29.66-.63.64-1,0-.29.66-.63.64-1,0-.29.66-.63.64-1,0-.66.15-1.15-.34-1-1,.54-.29,1.2-.62,2-1l2,1Z"/>
  <path class="cls-542" d="M22,4c.87.28.86.62,0,1l-4.06.06c-.85-.04-1.1-.63-.94-1.06h5Z"/>
  <path class="cls-99" d="M29,5v1c-.29.66-.63.64-1,0-.3.63-.63.62-1,0-.66-.29-.64-.63,0-1h2Z"/>
  <path class="cls-230" d="M24,4c.13.48-.14.87-.51,1.01-.48.1-.95-.05-1.49,0v-1h2Z"/>
  <path class="cls-312" d="M27,6c-.28.87-.62.86-1,0v-1h1v1Z"/>
  <path class="cls-378" d="M15,5h1c.05,1.2-1.05,1.2-1,0Z"/>
  <path class="cls-295" d="M20,34c.73.71,1.29.68,2,0,.26-.83,1.47-.72,2,0,.66.29.64.63,0,1,.66.29.64.63,0,1h-2l-5.79-.02c-.33-.91-.78-1.15-1.21-.98-.3.63-.63.61-1,0-.66-.29-.64-.63,0-1,1.51-1.14,5.45-1.53,6,0Z"/>
  <path class="cls-60" d="M14,36v-1h1c.15.66-.34,1.15-1,1Z"/>
  <path class="cls-27" d="M11,8c.74.29,1.07.63,1,1,.87.28.86.62,0,1-.26.83-1.47.72-2,0l-1,1c-.26.83-1.47.72-2,0v-1l1-1,1-1c.29-.66.63-.64,1,0,.29-.66.63-.64,1,0Z"/>
  <path class="cls-207" d="M9,11c.87.28.86.62,0,1-.26.83-1.47.72-2,0v-1h2Z"/>
  <path class="cls-52" d="M6,17c.87.28.86.62,0,1-.29.66-.63.64-1,0v-2c.29-.66.63-.64,1,0,.66.29.64.63,0,1Z"/>
  <path class="cls-260" d="M7,14c-.29.66-.63.64-1,0v-1c.3-.63.63-.61,1,0,.66.29.64.63,0,1Z"/>
  <path class="cls-198" d="M6,15c-.29.66-.63.64-1,0-.15-.66.34-1.15,1-1,.66.29.64.63,0,1Z"/>
  <path class="cls-157" d="M7,13h-1c-.15-.66.34-1.15,1-1,.87.28.86.62,0,1Z"/>
  <path class="cls-180" d="M6,16h-1v-1h1c.66.29.64.63,0,1Z"/>
  <path class="cls-257" d="M7,24c.29-.66.63-.64,1,0,.89,1.4.4,1.89-1,1-.2,1.23-.93,1.78-2,1v-1c-.12-1.21,1.08-1.13,2-1Z"/>
  <path class="cls-545" d="M8,22c.7.29.69.63,0,1-.29.66-.63.64-1,0h-1c-.66-.29-.64-.63,0-1,.29-.66.63-.64,1,0,.29-.66.63-.64,1,0Z"/>
  <path class="cls-56" d="M11,22l1,1c.87.28.86.62,0,1-.29.66-.63.64-1,0-.29.66-.63.64-1,0-.4-.53-.63-.58-1,0-.28.87-.62.86-1,0h-1v-1h1c.46-2.22,1.33-2.71,3-1Z"/>
  <path class="cls-271" d="M5,23h-1v-1c.29-.66.63-.64,1,0,.66.29.64.63,0,1Z"/>
  <path class="cls-401" d="M6,23h-1v-1c.29-.66.63-.64,1,0v1Z"/>
  <path class="cls-426" d="M36,14c.66.29.64.63,0,1-.29.66-.63.64-1,0-.69-.29-.67-.63,0-1-.66-.29-.64-.63,0-1,.29-.66.63-.64,1,0v1Z"/>
  <path class="cls-282" d="M37,15c-.29.66-.63.64-1,0v-1h1v1Z"/>
  <path class="cls-14" d="M12,5c-.29.66-.63.64-1,0v-1c.66-.15,1.15.34,1,1Z"/>
  <path class="cls-223" d="M36,19c.28-.87.62-.86,1,0v2c-.58.37-.53.6,0,1v1l-1,1c-.29.66-.63.64-1,0-.29.66-.63.64-1,0-.87-.28-.86-.62,0-1-.63-.3-.61-.63,0-1l1-1-1-1c-.66-.29-.64-.63,0-1,.26-.83,1.47-.72,2,0Z"/>
  <path class="cls-339" d="M37,25c-.29.66-.63.64-1,0-.66-.29-.64-.63,0-1-.15-.66.34-1.15,1-1v2Z"/>
  <path class="cls-311" d="M37,19h-1c-.87-.28-.86-.62,0-1-1.03-.72-1.41-1.84,0-2,.29-.66.63-.64,1,0v3Z"/>
  <path class="cls-342" d="M5,20c-.29.66-.63.64-1,0v-1h1c.66.29.64.63,0,1Z"/>
  <path class="cls-491" d="M5,21c-.29.66-.63.64-1,0v-1h1c.66.29.64.63,0,1Z"/>
  <path class="cls-231" d="M36,28h-1c-.66-.29-.64-.63,0-1,.29-.66.63-.64,1,0v1Z"/>
  <path class="cls-38" d="M35,29h-1c-.66-.29-.64-.63,0-1,.29-.66.63-.64,1,0v1Z"/>
  <path class="cls-134" d="M6,28h-1v-1c.29-.8.62-.79,1,0,.66.29.64.63,0,1Z"/>
  <path class="cls-63" d="M37,26h-1c-.87-.28-.86-.62,0-1h1v1Z"/>
  <path class="cls-239" d="M36,27h-1c-.66-.29-.64-.63,0-1,.29-.66.63-.64,1,0v1Z"/>
  <path class="cls-512" d="M30,34h-1c-.87-.28-.86-.62,0-1,.29-.66.63-.64,1,0v1Z"/>
  <path class="cls-539" d="M29,35h-1c-.66-.29-.64-.63,0-1,.29-.66.63-.64,1,0v1Z"/>
  <path class="cls-340" d="M25,36h-1v-1c.29-.66.63-.64,1,0v1Z"/>
  <path class="cls-249" d="M36,13h-1c-.66-.29-.64-.63,0-1h1v1Z"/>
  <path class="cls-111" d="M35,12c-.29.66-.63.64-1,0-.66-.29-.64-.63,0-1h1v1Z"/>
  <path class="cls-415" d="M37,16h-1c-.66-.29-.64-.63,0-1h1v1Z"/>
  <path class="cls-523" d="M34,11c-.29.66-.63.64-1,0-.66-.29-.64-.63,0-1,.29-.66.63-.64,1,0v1Z"/>
  <path class="cls-278" d="M6,19c-.29.66-.63.64-1,0v-1h1c.66.29.64.63,0,1Z"/>
  <path class="cls-388" d="M34,10h-1c-.66-.29-.64-.63,0-1h1v1Z"/>
  <path class="cls-88" d="M7,10v-1h1c.15.66-.34,1.15-1,1Z"/>
  <path class="cls-447" d="M33,9c-.29.66-.63.64-1,0-.66-.29-.64-.63,0-1h1v1Z"/>
  <path class="cls-61" d="M5,22h-1v-1h1c.66.29.64.63,0,1Z"/>
  <path class="cls-197" d="M37,22c-1.28.02-1.1-1.11,0-1v1Z"/>
  <path class="cls-445" d="M8,9v-1h1c.15.66-.34,1.15-1,1Z"/>
  <path class="cls-475" d="M32,8c-.29.66-.63.64-1,0-.66-.29-.64-.63,0-1h1v1Z"/>
  <path class="cls-281" d="M10,8h-1v-1h1c.87.28.86.62,0,1Z"/>
  <path class="cls-56" d="M7,26c.66.29.64.63,0,1-.29.66-.63.64-1,0h-1v-1l2-1c.87.28.86.62,0,1Z"/>
  <path class="cls-360" d="M31,8c-.29.66-.63.64-1,0-.66-.29-.64-.63,0-1h1v1Z"/>
  <path class="cls-55" d="M30,7c-.29.66-.63.64-1,0-.66-.29-.64-.63,0-1h1v1Z"/>
  <path class="cls-252" d="M7,29h-1v-1c.29-.66.63-.64,1,0,.66.29.64.63,0,1Z"/>
  <path class="cls-404" d="M8,30h-1v-1c.29-.66.63-.64,1,0,.66.29.64.63,0,1Z"/>
  <path class="cls-79" d="M34,30h-1c-.66-.29-.64-.63,0-1,.29-.66.63-.64,1,0v1Z"/>
  <path class="cls-258" d="M9,31h-1v-1c.29-.66.63-.64,1,0,.66.29.64.63,0,1Z"/>
  <path class="cls-86" d="M11,7c-.29.66-.63.64-1,0v-1h1c.66.29.64.63,0,1Z"/>
  <path class="cls-220" d="M33,31h-1c-.66-.29-.64-.63,0-1,.29-.66.63-.64,1,0v1Z"/>
  <path class="cls-465" d="M10,32h-1v-1c.29-.66.63-.64,1,0,.66.29.64.63,0,1Z"/>
  <path class="cls-105" d="M32,32h-1c-.66-.29-.64-.63,0-1,.29-.66.63-.64,1,0v1Z"/>
  <path class="cls-5" d="M11,33h-1v-1c.29-.66.63-.64,1,0,.66.29.64.63,0,1Z"/>
  <path class="cls-269" d="M12,6c-.29.66-.63.64-1,0v-1h1v1Z"/>
  <path class="cls-64" d="M31,33h-1c-.66-.29-.64-.63,0-1,.29-.66.63-.64,1,0v1Z"/>
  <path class="cls-67" d="M12,33h-1v-1c.29-.66.63-.64,1,0,.66.29.64.63,0,1Z"/>
  <path class="cls-158" d="M13,34h-1v-1c.29-.66.63-.64,1,0,.87.28.86.62,0,1Z"/>
  <path class="cls-509" d="M14,35h-1v-1c.28-.87.62-.86,1,0v1Z"/>
  <path class="cls-386" d="M26,35h-1c-.66-.29-.64-.63,0-1,.28-.87.62-.86,1,0,.66.29.64.63,0,1Z"/>
  <path class="cls-162" d="M27,35h-1v-1c.29-.69.63-.67,1,0,.66.29.64.63,0,1Z"/>
  <path class="cls-47" d="M28,35h-1v-1c.29-.66.63-.64,1,0v1Z"/>
  <path class="cls-477" d="M18,11l1,1c.87.28.86.62,0,1-.26.83-1.47.72-2,0-.26.83-1.47.72-2,0-1.4.89-1.89.4-1-1,.81-.32,1.81-.66,3-1-.87-.28-.86-.62,0-1h1c.87.28.86.62,0,1Z"/>
  <path class="cls-461" d="M15,9c-.29.86-2.3.72-3,0-.66.15-1.15-.34-1-1,.29-.66.63-.64,1,0l1-1h1.51c.76.42.53,1.27.49,2Z"/>
  <path class="cls-2" d="M15,9h1c.28-.87.62-.86,1,0v1c-.29.86-2.3.72-3,0-.26.83-1.47.72-2,0v-1h3Z"/>
  <path class="cls-430" d="M24,8c.68.29.67.63,0,1l-2,1c-.29.66-.63.64-1,0v-1l1-2h1l1,1Z"/>
  <path class="cls-261" d="M21,9c-.15-.91-.2-2.12,1-2-.04.56.12,1.03,0,1.49-.14.39-.53.64-1,.51Z"/>
  <path class="cls-217" d="M20,10c-.08,1.64-1.01,1.15-2,0-.14-.53.2-.95.52-1.01.87-.32,1.67.23,1.48,1.01Z"/>
  <path class="cls-191" d="M17,9h-1c-.03-.77-.35-1.67.71-2.08.59,1.04.24,1.59.29,2.08Z"/>
  <path class="cls-524" d="M21,11c-1.41.89-1.91.4-1-1h1c.66.29.64.63,0,1Z"/>
  <path class="cls-520" d="M24,7c-.3.63-.63.62-1,0v-1h1c.66.29.64.63,0,1Z"/>
  <path class="cls-521" d="M13,7c-.3.63-.63.61-1,0-.66-.29-.64-.63,0-1h1v1Z"/>
  <path class="cls-113" d="M26,7c-.29.66-.63.64-1,0-.66-.29-.64-.63,0-1h1c.68.29.67.63,0,1Z"/>
  <path class="cls-230" d="M25,7c-.29.66-.63.64-1,0v-1h1v1Z"/>
  <path class="cls-43" d="M29,7c-.29.66-.63.64-1,0-.63-.3-.61-.63,0-1h1v1Z"/>
  <path class="cls-344" d="M28,7c-1.42.99-1.89.47-1-1h1v1Z"/>
  <path class="cls-328" d="M28,7c.66.29.64.63,0,1,.66.29.64.63,0,1-.51,1.62-1.43.25-2-1-.66-.29-.64-.63,0-1v-1h1c-.15.66.34,1.15,1,1Z"/>
  <path class="cls-305" d="M14,32c.73.71,1.29.68,2,0-.1-1.51,1.11-1.04,2,0,.39.56.61.56,1,0-.87-.28-.86-.62,0-1,.06-1.63,1.05-1.17,2,0,.66.29.64.63,0,1l1,1c.87.28.86.62,0,1-.43.79-1.5.74-2,0h-7v-1c-.66-.29-.64-.63,0-1-.66-.29-.64-.63,0-1,.28-.87.62-.86,1,0,.87.28.86.62,0,1Z"/>
  <path class="cls-181" d="M27,33c.87.28.86.62,0,1h-2c-.29.66-.63.64-1,0h-2v-1c.29-.66.63-.64,1,0,.29-.66.63-.64,1,0l1-1c.29-.66.63-.64,1,0l1,1Z"/>
  <path class="cls-297" d="M22,34c.14.51-.18.93-.52,1.01-.86.32-1.67-.21-1.48-1.01h2Z"/>
  <rect class="cls-307" x="24" y="34" width="1" height="1"/>
  <path class="cls-448" d="M12,10h2c.87.28.86.62,0,1-.23,2.27-.77,1.75-2,0-.29.66-.63.64-1,0-.29.66-.63.64-1,0-.63-.3-.62-.63,0-1h2Z"/>
  <path class="cls-26" d="M12,7c.63.3.62.63,0,1h-2v-1h1c.29-.66.63-.64,1,0Z"/>
  <path class="cls-314" d="M10,11c-.29.66-.63.64-1,0-.15-.66.34-1.15,1-1v1Z"/>
  <path class="cls-373" d="M11,11c.66.29.64.63,0,1-.28.87-.62.86-1,0-.3.63-.63.61-1,0v-1h2Z"/>
  <path class="cls-153" d="M9,12c.63.3.62.63,0,1-.29.66-.63.64-1,0-.29.66-.63.64-1,0v-1h2Z"/>
  <path class="cls-31" d="M8,17c.28-.87.62-.86,1,0,.63.3.62.63,0,1-.3.63-.63.61-1,0-.28.87-.62.86-1,0-.29.66-.63.64-1,0v-1c.29-.66.63-.64,1,0,.28-.87.62-.86,1,0Z"/>
  <path class="cls-507" d="M7,17h-1v-1c.29-.66.63-.64,1,0,.66.29.64.63,0,1Z"/>
  <path class="cls-394" d="M8,14c-.29.66-.63.64-1,0v-1h1c.66.29.64.63,0,1Z"/>
  <path class="cls-182" d="M7,15c-.29.66-.63.64-1,0v-1h1c.66.29.64.63,0,1Z"/>
  <path class="cls-138" d="M7,16h-1v-1h1c.66.29.64.63,0,1Z"/>
  <path class="cls-16" d="M9,25c.66.29.64.63,0,1-.29.66-.63.64-1,0-.29.66-.63.64-1,0v-1c.66.15,1.15-.34,1-1h1c.66.29.64.63,0,1Z"/>
  <path class="cls-145" d="M13,21c.69.29.68.63,0,1-.25.83-1.45.7-2,0-1.26-.44-1.9.67-3,1v-1c-.66-.29-.64-.63,0-1-.66-.29-.64-.63,0-1,1.3-1.78,2.83-2.27,2.07.07.99.28,1.97.59,2.93.93Z"/>
  <path class="cls-11" d="M7,22h-1c-.66-.29-.64-.63,0-1,.29-.66.63-.64,1,0,.66.29.64.63,0,1Z"/>
  <path class="cls-42" d="M8,22h-1v-1c.28-.87.62-.86,1,0v1Z"/>
  <path class="cls-387" d="M10,24c-.29.66-.63.64-1,0-.11-1.1,1.02-1.28,1,0Z"/>
  <path class="cls-332" d="M6,22h-1v-1c.29-.66.63-.64,1,0v1Z"/>
  <path class="cls-311" d="M35,15c.66.29.64.63,0,1,.48,1.06.06,1.48-1,1,.63.3.61.63,0,1,.87.28.86.62,0,1v1c-.29.68-.63.67-1,0-.66-.29-.64-.63,0-1-.83-.26-.72-1.47,0-2l-1-1c-.29.66-.63.64-1,0-.66-.29-.64-.63,0-1,.29-.66.63-.64,1,0,.29-.66.63-.64,1,0l1-1c.29-.66.63-.64,1,0v1Z"/>
  <path class="cls-474" d="M35,14h-1c-.66-.29-.64-.63,0-1,.29-.66.63-.64,1,0v1Z"/>
  <path class="cls-431" d="M36,16c-.28.87-.62.86-1,0v-1h1v1Z"/>
  <path class="cls-190" d="M34,20c.63.3.61.63,0,1l-1,1,1,1v1c-.29.66-.63.64-1,0-.29.66-.63.64-1,0l-1-1c-.63-.3-.62-.63,0-1l1-2c.29-.66.63-.64,1,0h1Z"/>
  <path class="cls-476" d="M36,18v1h-2v-1c.3-.63.63-.62,1,0,.28-.87.62-.86,1,0Z"/>
  <path class="cls-464" d="M35,21c.15.66-.34,1.15-1,1-.3.63-.63.62-1,0-.15-.66.34-1.15,1-1,.3-.63.63-.62,1,0Z"/>
  <path class="cls-324" d="M35,24c.66.29.64.63,0,1-.29.66-.63.64-1,0-.29.66-.63.64-1,0-.66-.29-.64-.63,0-1h2Z"/>
  <path class="cls-273" d="M35,21h-1v-1c.66-.15,1.15.34,1,1Z"/>
  <path class="cls-322" d="M34,23c-.66.15-1.15-.34-1-1h1v1Z"/>
  <path class="cls-235" d="M36,25c-.29.66-.63.64-1,0v-1h1v1Z"/>
  <path class="cls-96" d="M36,16v2h-1l-1-1c-.15-.66.34-1.15,1-1h1Z"/>
  <path class="cls-152" d="M6,20c-.29.66-.63.64-1,0v-1h1c.66.29.64.63,0,1Z"/>
  <path class="cls-442" d="M6,21h-1v-1h1c.66.29.64.63,0,1Z"/>
  <path class="cls-411" d="M35,28h-1c-.66-.29-.64-.63,0-1,.29-.66.63-.64,1,0v1Z"/>
  <path class="cls-234" d="M34,29h-1c-.66-.29-.64-.63,0-1,.29-.66.63-.64,1,0v1Z"/>
  <path class="cls-480" d="M7,28h-1v-1h1c.66.29.64.63,0,1Z"/>
  <path class="cls-41" d="M36,25v1h-1c-.29.66-.63.64-1,0-.66-.29-.64-.63,0-1h2Z"/>
  <path class="cls-223" d="M35,27h-1c-.66-.29-.64-.63,0-1h1v1Z"/>
  <path class="cls-222" d="M29,33v1h-2v-1c.26-.83,1.47-.72,2,0Z"/>
  <path class="cls-276" d="M30,33h-1c-.87-.28-.86-.62,0-1,.29-.66.63-.64,1,0v1Z"/>
  <path class="cls-68" d="M35,13h-1c-.66-.29-.64-.63,0-1h1v1Z"/>
  <path class="cls-136" d="M34,12c-.29.66-.63.64-1,0-.66-.29-.64-.63,0-1h1v1Z"/>
  <path class="cls-487" d="M33,11c-.29.66-.63.64-1,0-.66-.29-.64-.63,0-1,.29-.66.63-.64,1,0v1Z"/>
  <path class="cls-56" d="M7,19c-.29.66-.63.64-1,0v-1h1c.66.29.64.63,0,1Z"/>
  <path class="cls-406" d="M33,10h-1c-.66-.29-.64-.63,0-1h1v1Z"/>
  <path class="cls-460" d="M32,9c-.29.66-.63.64-1,0-.66-.29-.64-.63,0-1h1v1Z"/>
  <path class="cls-49" d="M8,27c-.29.66-.63.64-1,0v-1h1c.66.29.64.63,0,1Z"/>
  <path class="cls-285" d="M31,9c-.29.66-.63.64-1,0-.66-.29-.64-.63,0-1h1v1Z"/>
  <path class="cls-255" d="M30,8c-.29.66-.63.64-1,0-.66-.29-.64-.63,0-1h1v1Z"/>
  <path class="cls-513" d="M8,29h-1v-1c.29-.66.63-.64,1,0,.66.29.64.63,0,1Z"/>
  <path class="cls-98" d="M9,30h-1v-1c.29-.66.63-.64,1,0,.66.29.64.63,0,1Z"/>
  <path class="cls-496" d="M33,30h-1c-.66-.29-.64-.63,0-1,.29-.66.63-.64,1,0v1Z"/>
  <path class="cls-444" d="M10,31h-1v-1c.29-.66.63-.64,1,0,.66.29.64.63,0,1Z"/>
  <rect class="cls-422" x="11" y="6" width="1" height="1"/>
  <path class="cls-537" d="M32,31h-1c-.66-.29-.64-.63,0-1,.29-.66.63-.64,1,0v1Z"/>
  <path class="cls-530" d="M11,32h-1v-1c.29-.66.63-.64,1,0,.66.29.64.63,0,1Z"/>
  <path class="cls-289" d="M31,32h-1c-.66-.29-.64-.63,0-1,.29-.66.63-.64,1,0v1Z"/>
  <path class="cls-425" d="M12,32h-1v-1c.29-.66.63-.64,1,0,.66.29.64.63,0,1Z"/>
  <path class="cls-46" d="M13,33h-1v-1c.28-.87.62-.86,1,0v1Z"/>
  <path class="cls-149" d="M19,13c.55-.88,3.05-.75,4,0,.87.28.86.62,0,1,.37,2.17-4.61,1.19-6,0-.87-.28-.86-.62,0-1h2Z"/>
  <path class="cls-483" d="M14,11c.87.28.86.62,0,1-.15.66.34,1.15,1,1,.87.28.86.62,0,1-.29.66-.63.64-1,0-.29.66-.63.64-1,0-.66-.29-.64-.63,0-1l-1-1c-.66-.29-.64-.63,0-1h2Z"/>
  <path class="cls-139" d="M21,12c.29-.66.63-.64,1,0,.29-.66.63-.64,1,0,.29-.66.63-.64,1,0,.66.29.64.63,0,1-.29.66-.63.64-1,0h-4v-1c.08-1.64,1.01-1.15,2,0Z"/>
  <path class="cls-73" d="M20,10c-.15.66.34,1.15,1,1,.66.29.64.63,0,1h-2l-1-1v-1h2Z"/>
  <path class="cls-59" d="M17,11c-.05,1.6-1.92.92-3,1v-1c.29-.86,2.3-.72,3,0Z"/>
  <rect class="cls-53" x="14" y="10" width="3" height="1"/>
  <path class="cls-377" d="M17,13v1c-.26.83-1.47.72-2,0v-1h2Z"/>
  <path class="cls-506" d="M19,12c-.66.15-1.15-.34-1-1,.66-.15,1.15.34,1,1Z"/>
  <path class="cls-353" d="M12,8v-1h1c.15.66-.34,1.15-1,1Z"/>
  <path class="cls-328" d="M26,9c1.27-.37,1.72,1.17,1,2,.48,1.06.06,1.48-1,1-.29.66-.63.64-1,0-.29.66-.63.64-1,0-.66-.29-.64-.63,0-1,.53-.4.58-.63,0-1-.87-.28-.86-.62,0-1v-1c.29-.66.63-.64,1,0l1,1Z"/>
  <path class="cls-110" d="M24,9v1c-.29.66-.63.64-1,0-.29.66-.63.64-1,0-.12-1.2,1.09-1.15,2-1Z"/>
  <path class="cls-467" d="M24,8c-.66.15-1.15-.34-1-1h1c.66.29.64.63,0,1Z"/>
  <path class="cls-95" d="M22,11c-.29.66-.63.64-1,0v-1h1c.66.29.64.63,0,1Z"/>
  <path class="cls-381" d="M26,8c-.3.63-.63.62-1,0-.66-.29-.64-.63,0-1h1v1Z"/>
  <rect class="cls-39" x="24" y="7" width="1" height="1"/>
  <path class="cls-266" d="M29,8c-.29.66-.63.64-1,0v-1h1v1Z"/>
  <path class="cls-115" d="M28,9c.66.29.64.63,0,1,.68.29.67.63,0,1-.28.87-.62.86-1,0l-1-2c-.63-.3-.61-.63,0-1l2,1Z"/>
  <path class="cls-334" d="M29,9c-.29.66-.63.64-1,0v-1h1c.66.29.64.63,0,1Z"/>
  <path class="cls-392" d="M27,25l1,1c.69.29.67.63,0,1l-1,1-1,1c-.29.66-.63.64-1,0l-1,1c-.54.29-1.21.62-2,1-.29.66-.63.64-1,0h-2c-.87-.28-.86-.62,0-1-.66-.29-.64-.63,0-1,.28-.87.62-.86,1,0h1c-.63-1.08-.17-1.47,1-1-.48-1.06-.06-1.48,1-1,.53-.4.58-.63,0-1-.66-.29-.64-.63,0-1,.29-.66.63-.64,1,0,.69.15.96-.29,1-1,.29-.66.63-.64,1,0l1,1Z"/>
  <path class="cls-246" d="M21,27c1.06-.48,1.48-.06,1,1,.15.66-.34,1.15-1,1h-2c-.29.66-.63.64-1,0-.56.39-.56.61,0,1,.29-.66.63-.64,1,0v1c-.89.32-1.89.65-3,1-.43.79-1.5.74-2,0v-1c-.98-.65-1.47-1.84,0-2-.66-.29-.64-.63,0-1,.29-.66.63-.64,1,0,.29-.66.63-.64,1,0,.29-.66.63-.64,1,0l2-1c.29-.66.63-.64,1,0,.29-.66.63-.64,1,0Z"/>
  <path class="cls-247" d="M19,31v1c-.3.56-.63.55-1,0h-2c.09-.94-1.66-1.17-.28-2.35,1.51.91,2.19,1.77,3.28,1.35Z"/>
  <path class="cls-194" d="M14,29v2h-1l-1-1c-.66-.29-.64-.63,0-1,.29-.66.63-.64,1,0,.29-.66.63-.64,1,0Z"/>
  <path class="cls-4" d="M16,32c.14.51-.18.93-.52,1.01-.86.32-1.67-.21-1.48-1.01h2Z"/>
  <path class="cls-146" d="M13,31v1h-1v-1c-.66-.29-.64-.63,0-1,.66-.15,1.15.34,1,1Z"/>
  <path class="cls-224" d="M22,32c-.3.63-.63.62-1,0v-1h1c.66.29.64.63,0,1Z"/>
  <path class="cls-173" d="M18,32h1c.05,1.2-1.05,1.2-1,0Z"/>
  <path class="cls-399" d="M22,33c-.66.15-1.15-.34-1-1h1c.66.29.64.63,0,1Z"/>
  <path class="cls-219" d="M29,32v1h-2c-.66.15-1.15-.34-1-1,.29-.66.63-.64,1,0,.26-.83,1.47-.72,2,0Z"/>
  <path class="cls-237" d="M26,32h-1c-.66-.29-.64-.63,0-1,.29-.66.63-.64,1,0,.66.29.64.63,0,1Z"/>
  <path class="cls-8" d="M23,33h-1v-1c.29-.66.63-.64,1,0,.66.29.64.63,0,1Z"/>
  <path class="cls-142" d="M24,33h-1v-1c.29-.66.63-.64,1,0,.63.3.62.63,0,1Z"/>
  <path class="cls-449" d="M24,33v-1c.29-.66.63-.64,1,0,.15.66-.34,1.15-1,1Z"/>
  <path class="cls-228" d="M12,12c-.29.66-.63.64-1,0v-1h1v1Z"/>
  <path class="cls-268" d="M11,13c.66.29.64.63,0,1-.29.66-.63.64-1,0-.29.66-.63.64-1,0-.66-.29-.64-.63,0-1l1-1h1c.66.29.64.63,0,1Z"/>
  <path class="cls-221" d="M9,13v-1h1c.15.66-.34,1.15-1,1Z"/>
  <path class="cls-472" d="M9,14c-.29.66-.63.64-1,0v-1h1v1Z"/>
  <path class="cls-409" d="M8,19c.87.28.86.62,0,1v1h-1c-.66-.29-.64-.63,0-1-.66-.29-.64-.63,0-1v-1h1c.63.3.62.63,0,1Z"/>
  <path class="cls-463" d="M10,17c.47,1.13.06,1.59-1,1v-1c-.66-.29-.64-.63,0-1,.29-.66.63-.64,1,0,.66.29.64.63,0,1Z"/>
  <path class="cls-56" d="M9,16v1h-1c-.85-.3-.7-1.52,0-2,.29-.66.63-.64,1,0,.66.29.64.63,0,1Z"/>
  <path class="cls-20" d="M8,17h-1v-2c.29-.66.63-.64,1,0v2Z"/>
  <path class="cls-51" d="M8,19v-1h1c1.41,1.85.85,2.41-1,1Z"/>
  <path class="cls-486" d="M8,15h-1v-1h1c.66.29.64.63,0,1Z"/>
  <path class="cls-380" d="M10,25c-.29.66-.63.64-1,0v-1h1c.66.29.64.63,0,1Z"/>
  <path class="cls-304" d="M10,26c-.29.66-.63.64-1,0v-1h1c.66.29.64.63,0,1Z"/>
  <path class="cls-457" d="M9,27c-.29.66-.63.64-1,0v-1h1c.66.29.64.63,0,1Z"/>
  <path class="cls-56" d="M10,19l1,1c.6-1.16,2.09-1.23,3,0,.28-.87.62-.86,1,0,.66.29.64.63,0,1-.29.71-.63.7-1,0-.28.87-.62.86-1,0-.82-.05-1.72.12-2.77-.07-.56-1.3-1.46-.99-2.23-.93v-1c.66.15,1.15-.34,1-1,.66.15,1.15-.34,1-1,.29-.66.63-.64,1,0,.98.67.07,1.84-1,2Z"/>
  <path class="cls-365" d="M13,23c-.87-.28-.86-.62,0-1v-1h1c3.37,1.78,2.54,4.09-1,2Z"/>
  <path class="cls-494" d="M13,22v1c-.28.87-.62.86-1,0-.66.15-1.15-.34-1-1h2Z"/>
  <path class="cls-522" d="M7,21h-1v-1c.29-.66.63-.64,1,0v1Z"/>
  <path class="cls-397" d="M33,19c-.29.66-.63.64-1,0-.85-.3-.7-1.52,0-2,.3-.63.63-.62,1,0v2Z"/>
  <path class="cls-106" d="M32,15h-1c-.66-.29-.64-.63,0-1,.29-.66.63-.64,1,0,.66.29.64.63,0,1Z"/>
  <path class="cls-424" d="M33,15h-1v-1c.29-.66.63-.64,1,0,.63.3.62.63,0,1Z"/>
  <path class="cls-32" d="M33,15v-1c.29-.66.63-.64,1,0,.15.66-.34,1.15-1,1Z"/>
  <path class="cls-240" d="M31,16c-.29.66-.63.64-1,0-.66-.29-.64-.63,0-1,.29-.66.63-.64,1,0v1Z"/>
  <path class="cls-85" d="M32,17c-.28.87-.62.86-1,0-.66-.29-.64-.63,0-1h1c.63.3.61.63,0,1Z"/>
  <path class="cls-396" d="M33,17h-1v-1c.66-.15,1.15.34,1,1Z"/>
  <path class="cls-91" d="M35,18h-1v-1c.66-.15,1.15.34,1,1Z"/>
  <path class="cls-391" d="M33,20h-1c-.66-.29-.64-.63,0-1h1v1Z"/>
  <path class="cls-488" d="M34,14h-1c-.66-.29-.64-.63,0-1,.29-.66.63-.64,1,0v1Z"/>
  <path class="cls-117" d="M31,23c.63.3.61.63,0,1,.66.29.64.63,0,1l-1,1-1,1c-.29.66-.63.64-1,0v-1c-.72-1.05-1.41-2.88,0-3,.29-.68.63-.67,1,0,.39.56.61.56,1,0-.92-1.64-.5-2.17,1-1v1Z"/>
  <path class="cls-407" d="M31,22c-.87-.28-.86-.62,0-1-.63-.3-.61-.63,0-1,.29-.66.63-.64,1,0,.15.91.2,2.12-1,2Z"/>
  <path class="cls-492" d="M32,24c-.29.66-.63.64-1,0v-1c.66-.15,1.15.34,1,1Z"/>
  <path class="cls-232" d="M33,25c-.29.66-.63.64-1,0-.66-.29-.64-.63,0-1h1v1Z"/>
  <path class="cls-40" d="M34,26c-.29.66-.63.64-1,0-.66-.29-.64-.63,0-1h1v1Z"/>
  <rect class="cls-196" x="6" y="19" width="1" height="1"/>
  <path class="cls-214" d="M34,28h-1c-.66-.29-.64-.63,0-1,.29-.66.63-.64,1,0v1Z"/>
  <path class="cls-329" d="M33,29h-1c-.66-.29-.64-.63,0-1,.29-.66.63-.64,1,0v1Z"/>
  <path class="cls-251" d="M8,28h-1v-1h1c.66.29.64.63,0,1Z"/>
  <path class="cls-130" d="M34,27h-1c-.66-.29-.64-.63,0-1h1v1Z"/>
  <path class="cls-119" d="M30,32h-1c-.87-.28-.86-.62,0-1,.29-.66.63-.64,1,0v1Z"/>
  <path class="cls-511" d="M34,13h-1c-.66-.29-.64-.63,0-1h1v1Z"/>
  <path class="cls-469" d="M33,12c-.29.66-.63.64-1,0-.66-.29-.64-.63,0-1h1v1Z"/>
  <path class="cls-308" d="M32,11c-.29.66-.63.64-1,0-.66-.29-.64-.63,0-1,.29-.66.63-.64,1,0v1Z"/>
  <path class="cls-159" d="M32,10h-1c-.66-.29-.64-.63,0-1h1v1Z"/>
  <path class="cls-356" d="M31,10c-.29.66-.63.64-1,0-.66-.29-.64-.63,0-1h1v1Z"/>
  <path class="cls-428" d="M30,9c-.29.66-.63.64-1,0v-1h1v1Z"/>
  <path class="cls-412" d="M9,29h-1v-1c.29-.66.63-.64,1,0,.66.29.64.63,0,1Z"/>
  <path class="cls-129" d="M10,30h-1v-1c.29-.66.63-.64,1,0,.66.29.64.63,0,1Z"/>
  <path class="cls-315" d="M32,30h-1c-.66-.29-.64-.63,0-1,.29-.66.63-.64,1,0v1Z"/>
  <path class="cls-372" d="M11,31h-1v-1c.29-.66.63-.64,1,0,.66.29.64.63,0,1Z"/>
  <path class="cls-10" d="M31,31h-1c-.66-.29-.64-.63,0-1,.29-.66.63-.64,1,0v1Z"/>
  <path class="cls-528" d="M12,31h-1v-1c.29-.66.63-.64,1,0v1Z"/>
  <path class="cls-209" d="M23,14c.87.28.86.62,0,1,.87.28.86.62,0,1,.87.28.86.62,0,1l-1,1c-.29.66-.63.64-1,0-.63-.3-.62-.63,0-1,.56-.39.56-.61,0-1-1.29,1.83-2.3,2.53-3,0l-1-1c-.87-.28-.86-.62,0-1h6Z"/>
  <path class="cls-121" d="M25,13c.87.28.86.62,0,1-.26.83-1.47.72-2,0v-1h1c.29-.66.63-.64,1,0Z"/>
  <path class="cls-357" d="M13,14c-.29.66-.63.64-1,0-.66-.29-.64-.63,0-1,.3-.63.63-.62,1,0v1Z"/>
  <path class="cls-102" d="M13,13h-1c-.66-.29-.64-.63,0-1,.66-.15,1.15.34,1,1Z"/>
  <path class="cls-354" d="M14,15c-.29.66-.63.64-1,0-.66-.29-.64-.63,0-1h1c.66.29.64.63,0,1Z"/>
  <path class="cls-540" d="M15,15c-.29.66-.63.64-1,0v-1h1c.87.28.86.62,0,1Z"/>
  <path class="cls-69" d="M25,13h-1v-1h1c.66.29.64.63,0,1Z"/>
  <path class="cls-374" d="M24,12h-1c-.66-.29-.64-.63,0-1,.29-.66.63-.64,1,0v1Z"/>
  <path class="cls-62" d="M23,12h-1c-.66-.29-.64-.63,0-1,.29-.66.63-.64,1,0v1Z"/>
  <rect class="cls-242" x="21" y="11" width="1" height="1"/>
  <path class="cls-327" d="M17,14v1c-.26.83-1.47.72-2,0v-1h2Z"/>
  <path class="cls-517" d="M28,11c.87.28.86.62,0,1,.66.29.64.63,0,1-.29.66-.63.64-1,0-.29.66-.63.64-1,0-.66-.29-.64-.63,0-1-.15-.66.34-1.15,1-1h1Z"/>
  <path class="cls-161" d="M26,13c-.29.66-.63.64-1,0v-1h1v1Z"/>
  <path class="cls-292" d="M24,11c-.66-.29-.64-.63,0-1,1.1-.11,1.28,1.02,0,1Z"/>
  <path class="cls-205" d="M26,9c-.66.15-1.15-.34-1-1h1v1Z"/>
  <path class="cls-459" d="M24,11h-1c-.66-.29-.64-.63,0-1h1v1Z"/>
  <rect class="cls-435" x="22" y="10" width="1" height="1"/>
  <path class="cls-328" d="M30,11c.66.29.64.63,0,1-.29.66-.63.64-1,0-.29.66-.63.64-1,0v-2c.29-.66.63-.64,1,0l1,1Z"/>
  <path class="cls-208" d="M29,10h-1v-1h1c.66.29.64.63,0,1Z"/>
  <path class="cls-203" d="M28,23v3c-.66.15-1.15-.34-1-1l-1-1c-.66-.29-.64-.63,0-1l1-1c.29-.66.63-.64,1,0,.87.28.86.62,0,1Z"/>
  <path class="cls-212" d="M23,26c.56.3.54.63,0,1,.15.66-.34,1.15-1,1-.66.15-1.15-.34-1-1-.66-.29-.64-.63,0-1,.29-.66.63-.64,1,0,.29-.66.63-.64,1,0Z"/>
  <path class="cls-57" d="M24,25c-.66-.29-.64-.63,0-1,.29-.66.63-.64,1,0-.18.43.04.83,1.03,1.27-.08.73-.79.96-1.5.74-.26-.03-.68-.47-.53-1.01Z"/>
  <path class="cls-536" d="M24,30c.66.29.64.63,0,1-.29.66-.63.64-1,0-.29.66-.63.64-1,0-.13-.47.12-.87.51-1,.46-.12.93.05,1.49,0Z"/>
  <path class="cls-201" d="M21,29c.11,1.1-1.02,1.28-1,0-.05-1.2,1.05-1.2,1,0Z"/>
  <path class="cls-172" d="M29,27c.66.29.64.63,0,1-.29.66-.63.64-1,0-.29.66-.63.64-1,0-.15-.66.34-1.15,1-1h1Z"/>
  <path class="cls-238" d="M27,25c-.66.15-1.15-.34-1-1,.66-.15,1.15.34,1,1Z"/>
  <path class="cls-29" d="M23,27v-1c1.1-.11,1.28,1.02,0,1Z"/>
  <path class="cls-515" d="M27,29c-.29.66-.63.64-1,0-.15-.66.34-1.15,1-1,.66.29.64.63,0,1Z"/>
  <path class="cls-313" d="M19,30h-1c-.56-.3-.55-.63,0-1h1v1Z"/>
  <path class="cls-317" d="M25,30c-.29.66-.63.64-1,0-.15-.66.34-1.15,1-1,.66.29.64.63,0,1Z"/>
  <path class="cls-439" d="M26,30c-.29.66-.63.64-1,0v-1h1c.66.29.64.63,0,1Z"/>
  <path class="cls-6" d="M19,27c.12,1.2-1.09,1.15-2,1-.66-.29-.64-.63,0-1,.29-.66.63-.64,1,0,.29-.66.63-.64,1,0Z"/>
  <path class="cls-272" d="M20,27h-1c-.66-.29-.64-.63,0-1,.29-.66.63-.64,1,0,.66.29.64.63,0,1Z"/>
  <path class="cls-54" d="M21,27h-1v-1c.29-.66.63-.64,1,0v1Z"/>
  <path class="cls-319" d="M15,28h-1c-.66-.29-.64-.63,0-1,.29-.66.63-.64,1,0,.66.29.64.63,0,1Z"/>
  <path class="cls-338" d="M16,28h-1v-1c.29-.66.63-.64,1,0,.66.29.64.63,0,1Z"/>
  <path class="cls-154" d="M17,28h-1v-1c.29-.66.63-.64,1,0v1Z"/>
  <path class="cls-176" d="M14,29h-1c-.66-.29-.64-.63,0-1,.29-.66.63-.64,1,0v1Z"/>
  <path class="cls-233" d="M18,30c-1.2.05-1.2-1.05,0-1v1Z"/>
  <path class="cls-277" d="M13,29h-1c-.66-.29-.64-.63,0-1,.29-.66.63-.64,1,0v1Z"/>
  <path class="cls-244" d="M12,30h-1c-.66-.29-.64-.63,0-1,.29-.66.63-.64,1,0v1Z"/>
  <path class="cls-417" d="M23,32h-1v-1h1c.66.29.64.63,0,1Z"/>
  <path class="cls-141" d="M29,31v1h-2c-.66-.29-.64-.63,0-1,.65-.98,1.84-1.47,2,0Z"/>
  <path class="cls-350" d="M27,32h-1v-1c.29-.66.63-.64,1,0v1Z"/>
  <path class="cls-156" d="M26,31h-1c-.66-.29-.64-.63,0-1h1c.66.29.64.63,0,1Z"/>
  <path class="cls-302" d="M25,32h-1c-.66-.29-.64-.63,0-1,.29-.66.63-.64,1,0v1Z"/>
  <rect class="cls-170" x="23" y="31" width="1" height="1"/>
  <path class="cls-309" d="M12,13c-.29.66-.63.64-1,0v-1h1v1Z"/>
  <path class="cls-287" d="M12,14c-.29.66-.63.64-1,0v-1h1v1Z"/>
  <path class="cls-144" d="M10,15c-.29.66-.63.64-1,0-.66-.29-.64-.63,0-1h1c.66.29.64.63,0,1Z"/>
  <path class="cls-298" d="M11,15c-.29.66-.63.64-1,0v-1h1c.66.29.64.63,0,1Z"/>
  <rect class="cls-259" x="8" y="14" width="1" height="1"/>
  <path class="cls-466" d="M10,16h-1v-1h1c.66.29.64.63,0,1Z"/>
  <path class="cls-137" d="M11,17h-1v-1c.29-.66.63-.64,1,0,.66.29.64.63,0,1Z"/>
  <path class="cls-178" d="M11,25c-.29.66-.63.64-1,0v-1h1c.66.29.64.63,0,1Z"/>
  <path class="cls-133" d="M11,26c-.29.66-.63.64-1,0v-1h1c.66.29.64.63,0,1Z"/>
  <path class="cls-132" d="M10,27c-.29.66-.63.64-1,0v-1h1c.66.29.64.63,0,1Z"/>
  <path class="cls-185" d="M9,28h-1v-1h1c.66.29.64.63,0,1Z"/>
  <path class="cls-66" d="M18,16h3c.56.3.55.63,0,1l-1,1c.66.29.64.63,0,1l-1,1c-.29.66-.63.64-1,0-.83-.76-2.16-.75-3,0h-1c-1.5-.38-2.17-1.04-2-2-.84-.29-.83-.62,0-1,.29-.66.63-.64,1,0l2-1c.25-.85,2.23-.73,3,0Z"/>
  <path class="cls-169" d="M16,21l1,1c.66.29.64.63,0,1,.66.29.64.63,0,1,.66.29.64.63,0,1-.29.66-.63.64-1,0l-1-1c-.29.66-.63.64-1,0l-1,1c-.29.66-.63.64-1,0-.66-.29-.64-.63,0-1v-1h1c.49-.05.99.29,2.11-.29-.42-.72-1.28-.96-1.11-1.71h1c.29-.66.63-.64,1,0Z"/>
  <path class="cls-107" d="M14,20h-3c-.63-.3-.61-.63,0-1-.02-.76.26-1.19,1-1,.95.11,1.89,1.05,2,2Z"/>
  <path class="cls-333" d="M11,20c-.66.15-1.15-.34-1-1,.3-.58.63-.57,1,0v1Z"/>
  <path class="cls-263" d="M16,21h-1v-1c.3-.61.63-.59,1,0,.66.29.64.63,0,1Z"/>
  <path class="cls-200" d="M12,25c-.29.66-.63.64-1,0v-1h1v1Z"/>
  <path class="cls-482" d="M12,18c.15.66-.34,1.15-1,1h-1l1-2c.29-.66.63-.64,1,0v1Z"/>
  <path class="cls-311" d="M32,19c-.29.66-.63.64-1,0-.66-.29-.64-.63,0-1-.66-.29-.64-.63,0-1h1v2Z"/>
  <path class="cls-362" d="M32,14h-1c-.66-.29-.64-.63,0-1,.29-.66.63-.64,1,0,.66.29.64.63,0,1Z"/>
  <path class="cls-453" d="M31,15h-1c-.66-.29-.64-.63,0-1,.29-.66.63-.64,1,0v1Z"/>
  <path class="cls-23" d="M33,14h-1v-1c.29-.66.63-.64,1,0v1Z"/>
  <path class="cls-284" d="M30,16c-.29.66-.63.64-1,0-.66-.29-.64-.63,0-1,.29-.66.63-.64,1,0v1Z"/>
  <path class="cls-108" d="M31,17c-.29.66-.63.64-1,0-.66-.29-.64-.63,0-1h1v1Z"/>
  <path class="cls-375" d="M32,20h-1c-.66-.29-.64-.63,0-1h1v1Z"/>
  <path class="cls-112" d="M31,21v1c-.66-.15-1.15.34-1,1-.3.56-.63.55-1,0h-1v-1l1-1c-.66-.29-.64-.63,0-1,.29-.66.63-.64,1,0l1,1Z"/>
  <path class="cls-407" d="M29,23h1c.05,1.2-1.05,1.2-1,0Z"/>
  <path class="cls-109" d="M32,25c-.29.66-.63.64-1,0v-1h1v1Z"/>
  <path class="cls-34" d="M31,26c-.29.66-.63.64-1,0-.15-.66.34-1.15,1-1,.66.29.64.63,0,1Z"/>
  <path class="cls-367" d="M30,27c-.29.66-.63.64-1,0-.15-.66.34-1.15,1-1,.66.29.64.63,0,1Z"/>
  <path class="cls-502" d="M31,21c-.66.15-1.15-.34-1-1,.29-.66.63-.64,1,0v1Z"/>
  <path class="cls-303" d="M33,26c-.29.66-.63.64-1,0-.66-.29-.64-.63,0-1h1v1Z"/>
  <path class="cls-403" d="M33,28h-1c-.66-.29-.64-.63,0-1,.29-.66.63-.64,1,0v1Z"/>
  <path class="cls-192" d="M32,29h-1c-.66-.29-.64-.63,0-1,.29-.66.63-.64,1,0v1Z"/>
  <path class="cls-527" d="M33,27h-1c-.66-.29-.64-.63,0-1h1v1Z"/>
  <path class="cls-265" d="M30,31h-1c-.87-.28-.86-.62,0-1,.29-.66.63-.64,1,0v1Z"/>
  <path class="cls-393" d="M33,13h-1c-.66-.29-.64-.63,0-1h1v1Z"/>
  <path class="cls-1" d="M32,12c-.29.66-.63.64-1,0-.66-.29-.64-.63,0-1h1v1Z"/>
  <path class="cls-128" d="M31,11c-.29.66-.63.64-1,0-.63-.3-.61-.63,0-1h1v1Z"/>
  <path class="cls-103" d="M30,10c-.3.63-.63.62-1,0v-1h1v1Z"/>
  <path class="cls-290" d="M10,29h-1v-1c.29-.66.63-.64,1,0,.66.29.64.63,0,1Z"/>
  <path class="cls-500" d="M11,30h-1v-1c.29-.66.63-.64,1,0v1Z"/>
  <path class="cls-116" d="M31,30h-1c-.66-.29-.64-.63,0-1,.29-.66.63-.64,1,0v1Z"/>
  <path class="cls-526" d="M25,14c.29-.66.63-.64,1,0,.66.29.64.63,0,1-.29.66-.63.64-1,0-.3.85-1.52.7-2,0v-1h2Z"/>
  <path class="cls-122" d="M17,15c.66-.15,1.15.34,1,1h-3c-.66-.29-.64-.63,0-1h2Z"/>
  <path class="cls-143" d="M23,18c.66.29.64.63,0,1-.29.66-.63.64-1,0-.66-.29-.64-.63,0-1-.15-.66.34-1.15,1-1,.66.29.64.63,0,1Z"/>
  <path class="cls-50" d="M25,16c.66.29.64.63,0,1-.29.66-.63.64-1,0-.29.66-.63.64-1,0v-1c.26-.83,1.47-.72,2,0Z"/>
  <path class="cls-183" d="M25,15c.66.29.64.63,0,1h-2v-1h2Z"/>
  <path class="cls-519" d="M21,17v-1c1.18-.05,1.21,1.04,0,1Z"/>
  <path class="cls-402" d="M27,13c.66.29.64.63,0,1-.29.66-.63.64-1,0h-1v-1h2Z"/>
  <path class="cls-398" d="M13,15c-.29.66-.63.64-1,0-.66-.29-.64-.63,0-1h1v1Z"/>
  <path class="cls-364" d="M14,16c-.29.7-.63.69-1,0-.66-.29-.64-.63,0-1h1c.66.29.64.63,0,1Z"/>
  <path class="cls-70" d="M15,16c-.3.62-.63.6-1,0v-1h1v1Z"/>
  <path class="cls-65" d="M29,13c-.29.66-.63.64-1,0v-1h1c.66.29.64.63,0,1Z"/>
  <path class="cls-328" d="M28,14c-.29.66-.63.64-1,0v-1h1c.66.29.64.63,0,1Z"/>
  <path class="cls-18" d="M31,12c-.29.66-.63.64-1,0v-1h1v1Z"/>
  <path class="cls-12" d="M30,11c-.66.15-1.15-.34-1-1h1v1Z"/>
  <path class="cls-202" d="M30,13c-.29.66-.63.64-1,0v-1h1c.66.29.64.63,0,1Z"/>
  <path class="cls-351" d="M28,22h-1c-.66-.29-.64-.63,0-1,.29-.66.63-.64,1,0,.63.3.62.63,0,1Z"/>
  <path class="cls-160" d="M26,23c-.66-.29-.64-.63,0-1,.29-.66.63-.64,1,0,.15.66-.34,1.15-1,1Z"/>
  <path class="cls-127" d="M26,24h-1c-.66-.29-.64-.63,0-1,.29-.66.63-.64,1,0v1Z"/>
  <path class="cls-484" d="M22,26h-1c-.66-.29-.64-.63,0-1,.29-.66.63-.64,1,0,.66.29.64.63,0,1Z"/>
  <path class="cls-384" d="M23,26h-1v-1c.29-.66.63-.64,1,0v1Z"/>
  <path class="cls-306" d="M25,24h-1c-.66-.29-.64-.63,0-1,.29-.66.63-.64,1,0v1Z"/>
  <path class="cls-90" d="M24,25h-1c-.66-.29-.64-.63,0-1,.29-.66.63-.64,1,0v1Z"/>
  <rect class="cls-471" x="24" y="30" width="1" height="1"/>
  <path class="cls-318" d="M30,28c-.29.66-.63.64-1,0v-1h1c.66.29.64.63,0,1Z"/>
  <path class="cls-473" d="M28,29c-.3.63-.63.61-1,0v-1h1c.66.29.64.63,0,1Z"/>
  <path class="cls-468" d="M29,29c-.28.87-.62.86-1,0v-1h1c.66.29.64.63,0,1Z"/>
  <path class="cls-352" d="M27,30c-.29.66-.63.64-1,0v-1h1c.63.3.62.63,0,1Z"/>
  <path class="cls-383" d="M18,27h-1c-.66-.29-.64-.63,0-1,.29-.66.63-.64,1,0,.66.29.64.63,0,1Z"/>
  <path class="cls-541" d="M19,27h-1v-1c.29-.66.63-.64,1,0v1Z"/>
  <path class="cls-164" d="M20,26h-1c-.66-.29-.64-.63,0-1,.29-.66.63-.64,1,0,.66.29.64.63,0,1Z"/>
  <path class="cls-348" d="M21,26h-1v-1c.29-.66.63-.64,1,0v1Z"/>
  <path class="cls-72" d="M15,27h-1c-.66-.29-.64-.63,0-1,.29-.66.63-.64,1,0,.66.29.64.63,0,1Z"/>
  <path class="cls-443" d="M14,28h-1c-.66-.29-.64-.63,0-1,.29-.66.63-.64,1,0v1Z"/>
  <path class="cls-355" d="M16,27h-1v-1c.29-.66.63-.64,1,0,.66.29.64.63,0,1Z"/>
  <path class="cls-299" d="M17,27h-1v-1c.29-.66.63-.64,1,0v1Z"/>
  <path class="cls-400" d="M13,28h-1c-.66-.29-.64-.63,0-1,.29-.66.63-.64,1,0v1Z"/>
  <path class="cls-325" d="M12,29h-1c-.66-.29-.64-.63,0-1,.29-.66.63-.64,1,0v1Z"/>
  <path class="cls-250" d="M29,30v1h-2c-.66-.29-.64-.63,0-1l1-1h1c.66.29.64.63,0,1Z"/>
  <rect class="cls-256" x="26" y="30" width="1" height="1"/>
  <path class="cls-36" d="M12,15c-.29.66-.63.64-1,0v-1h1v1Z"/>
  <path class="cls-389" d="M11,16h-1v-1h1c.66.29.64.63,0,1Z"/>
  <path class="cls-267" d="M12,17h-1v-1c.29-.66.63-.64,1,0,.66.29.64.63,0,1Z"/>
  <path class="cls-432" d="M12,26c-.29.66-.63.64-1,0v-1h1c.66.29.64.63,0,1Z"/>
  <path class="cls-174" d="M11,27c-.29.66-.63.64-1,0v-1h1c.66.29.64.63,0,1Z"/>
  <path class="cls-316" d="M10,28h-1v-1h1c.66.29.64.63,0,1Z"/>
  <path class="cls-533" d="M18,20c-.29.66-.63.64-1,0-.29.66-.63.64-1,0h-1c-.16-1.07.77-1.1,2.06-1.04.82,0,1.11.6.94,1.04Z"/>
  <path class="cls-408" d="M15,16c.12,1.2-1.09,1.15-2,1-.66-.29-.64-.63,0-1h2Z"/>
  <path class="cls-213" d="M13,17h-1v-1c.29-.66.63-.64,1,0v1Z"/>
  <path class="cls-423" d="M21,18c-.29.66-.63.64-1,0-.15-.66.34-1.15,1-1v1Z"/>
  <path class="cls-80" d="M21,19c-.29.66-.63.64-1,0v-1h1c.66.29.64.63,0,1Z"/>
  <path class="cls-124" d="M20,20c-.29.66-.63.64-1,0-.15-.66.34-1.15,1-1,.66.29.64.63,0,1Z"/>
  <path class="cls-275" d="M19,21c-.29.66-.63.64-1,0-.66-.29-.64-.63,0-1h1c.66.29.64.63,0,1Z"/>
  <path class="cls-148" d="M14,25c.66.29.64.63,0,1-.29.66-.63.64-1,0-.66-.29-.64-.63,0-1-.15-.66.34-1.15,1-1,.66.29.64.63,0,1Z"/>
  <path class="cls-330" d="M17,22c-.66.15-1.15-.34-1-1,.29-.66.63-.64,1,0,.66.29.64.63,0,1Z"/>
  <path class="cls-490" d="M18,23c-.29.66-.63.64-1,0v-1c.29-.66.63-.64,1,0,.66.29.64.63,0,1Z"/>
  <path class="cls-126" d="M18,24c-.29.66-.63.64-1,0v-1h1c.66.29.64.63,0,1Z"/>
  <path class="cls-543" d="M15,25c-.29.66-.63.64-1,0v-1h1c.63.3.61.63,0,1Z"/>
  <path class="cls-211" d="M16,25c-.29.66-.63.64-1,0v-1c.66-.15,1.15.34,1,1Z"/>
  <path class="cls-320" d="M18,25c-.29.66-.63.64-1,0v-1h1c.66.29.64.63,0,1Z"/>
  <path class="cls-293" d="M13,26c-.29.66-.63.64-1,0v-1h1v1Z"/>
  <path class="cls-229" d="M17,26h-1c-.66-.29-.64-.63,0-1h1c.66.29.64.63,0,1Z"/>
  <path class="cls-518" d="M17,21h-1v-1h1c.66.29.64.63,0,1Z"/>
  <path class="cls-345" d="M31,18c-.29.66-.63.64-1,0-.66-.29-.64-.63,0-1h1v1Z"/>
  <path class="cls-30" d="M31,19c-.29.66-.63.64-1,0-.66-.29-.64-.63,0-1h1v1Z"/>
  <path class="cls-210" d="M32,13h-1c-.66-.29-.64-.63,0-1h1v1Z"/>
  <path class="cls-454" d="M31,14h-1c-.66-.29-.64-.63,0-1,.29-.66.63-.64,1,0v1Z"/>
  <path class="cls-456" d="M30,15h-1c-.66-.29-.64-.63,0-1,.29-.66.63-.64,1,0v1Z"/>
  <path class="cls-421" d="M29,16c-.29.66-.63.64-1,0-.66-.29-.64-.63,0-1,.29-.66.63-.64,1,0v1Z"/>
  <path class="cls-495" d="M30,17c-.29.66-.63.64-1,0-.66-.29-.64-.63,0-1h1v1Z"/>
  <path class="cls-77" d="M31,20h-1c-.66-.29-.64-.63,0-1h1v1Z"/>
  <path class="cls-83" d="M30,20h-1c-.66-.29-.64-.63,0-1,.29-.66.63-.64,1,0v1Z"/>
  <path class="cls-366" d="M29,21c-.3.63-.63.61-1,0-.66-.29-.64-.63,0-1,.29-.66.63-.64,1,0v1Z"/>
  <path class="cls-118" d="M28,22v-1h1c.15.66-.34,1.15-1,1Z"/>
  <path class="cls-413" d="M32,26c-.29.66-.63.64-1,0v-1h1v1Z"/>
  <path class="cls-343" d="M31,27c-.29.66-.63.64-1,0v-1h1c.66.29.64.63,0,1Z"/>
  <path class="cls-446" d="M32,28h-1c-.66-.29-.64-.63,0-1,.29-.66.63-.64,1,0v1Z"/>
  <path class="cls-17" d="M31,29h-1c-.66-.29-.64-.63,0-1,.29-.66.63-.64,1,0v1Z"/>
  <rect class="cls-206" x="31" y="26" width="1" height="1"/>
  <path class="cls-326" d="M30,30h-1v-1c.29-.66.63-.64,1,0v1Z"/>
  <path class="cls-532" d="M11,29h-1v-1c.29-.66.63-.64,1,0v1Z"/>
  <path class="cls-331" d="M27,15c-.29.66-.63.64-1,0v-1h1c.66.29.64.63,0,1Z"/>
  <path class="cls-335" d="M26,16c-.29.66-.63.64-1,0v-1h1c.66.29.64.63,0,1Z"/>
  <path class="cls-100" d="M24,18c-.29.66-.63.64-1,0v-1h1c.66.29.64.63,0,1Z"/>
  <path class="cls-9" d="M22,19c-.29.66-.63.64-1,0v-1h1v1Z"/>
  <path class="cls-24" d="M24,19c-.29.66-.63.64-1,0v-1h1c.66.29.64.63,0,1Z"/>
  <path class="cls-78" d="M23,20c-.29.66-.63.64-1,0-.66-.29-.64-.63,0-1h1c.66.29.64.63,0,1Z"/>
  <path class="cls-254" d="M26,17c-.29.66-.63.64-1,0v-1h1c.66.29.64.63,0,1Z"/>
  <path class="cls-504" d="M25,18c-.29.66-.63.64-1,0v-1h1c.66.29.64.63,0,1Z"/>
  <path class="cls-420" d="M13,16h-1c-.66-.29-.64-.63,0-1h1v1Z"/>
  <path class="cls-538" d="M29,14c-.29.66-.63.64-1,0v-1h1c.66.29.64.63,0,1Z"/>
  <path class="cls-120" d="M28,15c-.29.66-.63.64-1,0v-1h1c.66.29.64.63,0,1Z"/>
  <rect class="cls-270" x="30" y="12" width="1" height="1"/>
  <rect class="cls-177" x="29" y="13" width="1" height="1"/>
  <path class="cls-436" d="M28,21h-1c-.66-.29-.64-.63,0-1,.29-.66.63-.64,1,0v1Z"/>
  <path class="cls-45" d="M27,22h-1c-.66-.29-.64-.63,0-1,.29-.66.63-.64,1,0v1Z"/>
  <path class="cls-379" d="M26,23h-1c-.66-.29-.64-.63,0-1,.29-.66.63-.64,1,0v1Z"/>
  <path class="cls-225" d="M22,25h-1c-.66-.29-.64-.63,0-1,.29-.66.63-.64,1,0,.66.29.64.63,0,1Z"/>
  <path class="cls-547" d="M23,25h-1v-1c.29-.66.63-.64,1,0v1Z"/>
  <path class="cls-189" d="M25,23h-1c-.66-.29-.64-.63,0-1,.29-.66.63-.64,1,0v1Z"/>
  <path class="cls-241" d="M24,24h-1c-.66-.29-.64-.63,0-1,.29-.66.63-.64,1,0v1Z"/>
  <rect class="cls-227" x="30" y="27" width="1" height="1"/>
  <rect class="cls-163" x="29" y="28" width="1" height="1"/>
  <path class="cls-385" d="M27,30v-1h1c.15.66-.34,1.15-1,1Z"/>
  <path class="cls-28" d="M18,26h-1v-1h1c.66.29.64.63,0,1Z"/>
  <path class="cls-179" d="M19,26h-1v-1c.29-.66.63-.64,1,0v1Z"/>
  <path class="cls-361" d="M20,25h-1c-.66-.29-.64-.63,0-1,.29-.66.63-.64,1,0,.66.29.64.63,0,1Z"/>
  <path class="cls-498" d="M21,25h-1v-1c.29-.66.63-.64,1,0v1Z"/>
  <path class="cls-434" d="M15,26h-1v-1h1c.66.29.64.63,0,1Z"/>
  <path class="cls-21" d="M14,27h-1c-.66-.29-.64-.63,0-1h1v1Z"/>
  <rect class="cls-478" x="15" y="25" width="1" height="1"/>
  <path class="cls-58" d="M13,27h-1c-.66-.29-.64-.63,0-1h1v1Z"/>
  <path class="cls-497" d="M12,28h-1c-.66-.29-.64-.63,0-1,.29-.66.63-.64,1,0v1Z"/>
  <rect class="cls-193" x="11" y="15" width="1" height="1"/>
  <rect class="cls-516" x="11" y="26" width="1" height="1"/>
  <rect class="cls-168" x="10" y="27" width="1" height="1"/>
  <path class="cls-323" d="M18,21c-.29.66-.63.64-1,0v-1h1v1Z"/>
  <path class="cls-529" d="M21,20c-.29.66-.63.64-1,0v-1h1c.66.29.64.63,0,1Z"/>
  <path class="cls-82" d="M20,21c-.29.66-.63.64-1,0v-1h1c.66.29.64.63,0,1Z"/>
  <path class="cls-87" d="M19,22c-.29.66-.63.64-1,0-.66-.29-.64-.63,0-1h1c.66.29.64.63,0,1Z"/>
  <rect class="cls-140" x="17" y="21" width="1" height="1"/>
  <path class="cls-544" d="M19,23c-.29.66-.63.64-1,0v-1h1c.66.29.64.63,0,1Z"/>
  <path class="cls-104" d="M19,24c-.29.66-.63.64-1,0v-1h1c.66.29.64.63,0,1Z"/>
  <rect class="cls-195" x="18" y="24" width="1" height="1"/>
  <path class="cls-76" d="M30,18c-.29.66-.63.64-1,0-.66-.29-.64-.63,0-1h1v1Z"/>
  <path class="cls-150" d="M30,19h-1c-.66-.29-.64-.63,0-1h1v1Z"/>
  <rect class="cls-188" x="28" y="14" width="1" height="1"/>
  <path class="cls-429" d="M28,16c-.29.66-.63.64-1,0-.66-.29-.64-.63,0-1h1v1Z"/>
  <path class="cls-441" d="M29,17c-.29.66-.63.64-1,0-.66-.29-.64-.63,0-1h1v1Z"/>
  <path class="cls-262" d="M29,20h-1c-.66-.29-.64-.63,0-1,.29-.66.63-.64,1,0v1Z"/>
  <path class="cls-13" d="M27,16c-.29.66-.63.64-1,0v-1h1v1Z"/>
  <path class="cls-382" d="M22,20c-.29.66-.63.64-1,0v-1h1v1Z"/>
  <path class="cls-438" d="M25,19c-.29.66-.63.64-1,0v-1h1c.66.29.64.63,0,1Z"/>
  <path class="cls-346" d="M24,20c-.29.66-.63.64-1,0v-1h1c.66.29.64.63,0,1Z"/>
  <path class="cls-37" d="M23,21c-.29.66-.63.64-1,0-.66-.29-.64-.63,0-1h1c.66.29.64.63,0,1Z"/>
  <path class="cls-349" d="M27,17c-.29.66-.63.64-1,0v-1h1c.66.29.64.63,0,1Z"/>
  <path class="cls-336" d="M26,18c-.29.66-.63.64-1,0v-1h1c.66.29.64.63,0,1Z"/>
  <path class="cls-534" d="M28,20h-1c-.66-.29-.64-.63,0-1,.29-.66.63-.64,1,0v1Z"/>
  <path class="cls-19" d="M27,21h-1c-.66-.29-.64-.63,0-1,.29-.66.63-.64,1,0v1Z"/>
  <path class="cls-376" d="M26,22h-1c-.66-.29-.64-.63,0-1,.29-.66.63-.64,1,0v1Z"/>
  <path class="cls-151" d="M22,24h-1c-.66-.29-.64-.63,0-1,.29-.66.63-.64,1,0,.66.29.64.63,0,1Z"/>
  <path class="cls-462" d="M23,24h-1v-1c.29-.66.63-.64,1,0v1Z"/>
  <path class="cls-458" d="M25,22h-1c-.66-.29-.64-.63,0-1,.29-.66.63-.64,1,0v1Z"/>
  <path class="cls-531" d="M24,23h-1c-.66-.29-.64-.63,0-1,.29-.66.63-.64,1,0v1Z"/>
  <path class="cls-341" d="M20,24h-1v-1c.29-.66.63-.64,1,0,.66.29.64.63,0,1Z"/>
  <path class="cls-3" d="M21,24h-1v-1c.29-.66.63-.64,1,0v1Z"/>
  <path class="cls-499" d="M21,21c-.29.66-.63.64-1,0v-1h1c.66.29.64.63,0,1Z"/>
  <path class="cls-215" d="M20,22c-.29.66-.63.64-1,0v-1h1c.66.29.64.63,0,1Z"/>
  <path class="cls-147" d="M20,23h-1v-1h1c.66.29.64.63,0,1Z"/>
  <path class="cls-101" d="M29,18c-.29.66-.63.64-1,0-.66-.29-.64-.63,0-1h1v1Z"/>
  <path class="cls-301" d="M29,19h-1c-.66-.29-.64-.63,0-1h1v1Z"/>
  <path class="cls-186" d="M28,17c-.29.66-.63.64-1,0v-1h1v1Z"/>
  <path class="cls-89" d="M22,21c-.29.66-.63.64-1,0v-1h1v1Z"/>
  <path class="cls-35" d="M26,19c-.29.66-.63.64-1,0v-1h1c.66.29.64.63,0,1Z"/>
  <path class="cls-451" d="M25,20c-.29.66-.63.64-1,0v-1h1c.66.29.64.63,0,1Z"/>
  <path class="cls-433" d="M24,21c-.29.66-.63.64-1,0v-1h1c.66.29.64.63,0,1Z"/>
  <path class="cls-94" d="M23,22c-.29.66-.63.64-1,0-.66-.29-.64-.63,0-1h1c.66.29.64.63,0,1Z"/>
  <path class="cls-135" d="M27,18c-.29.66-.63.64-1,0v-1h1c.66.29.64.63,0,1Z"/>
  <path class="cls-410" d="M28,19h-1c-.66-.29-.64-.63,0-1,.29-.66.63-.64,1,0v1Z"/>
  <path class="cls-395" d="M27,20h-1c-.66-.29-.64-.63,0-1,.29-.66.63-.64,1,0v1Z"/>
  <path class="cls-92" d="M26,21h-1c-.66-.29-.64-.63,0-1,.29-.66.63-.64,1,0v1Z"/>
  <path class="cls-125" d="M22,23h-1c-.66-.29-.64-.63,0-1,.29-.66.63-.64,1,0,.66.29.64.63,0,1Z"/>
  <rect class="cls-243" x="22" y="22" width="1" height="1"/>
  <rect class="cls-165" x="24" y="20" width="1" height="1"/>
  <rect class="cls-359" x="23" y="21" width="1" height="1"/>
  <path class="cls-236" d="M21,23h-1v-1c.29-.66.63-.64,1,0v1Z"/>
  <path class="cls-337" d="M21,22h-1v-1h1c.66.29.64.63,0,1Z"/>
  <rect class="cls-300" x="27" y="17" width="1" height="1"/>
  <rect class="cls-15" x="21" y="21" width="1" height="1"/>
  <rect class="cls-508" x="26" y="18" width="1" height="1"/>
  <rect class="cls-455" x="25" y="19" width="1" height="1"/>
</svg>